<svg width="387" height="69" viewBox="0 0 387 69" fill="none" xmlns="http://www.w3.org/2000/svg">
<path d="M11.6152 31.3972C11.69 31.5941 11.2737 32.9618 11.2043 33.2656C11.0542 33.916 10.9311 34.5723 10.8354 35.233C9.71663 43.2779 13.7148 51.066 19.8891 55.9767C26.392 61.1488 35.1679 62.3282 43.1471 60.9116C43.9472 60.7695 44.7553 60.567 45.56 60.4652C44.7682 60.8423 44.0708 61.1354 43.2619 61.4599C42.1502 61.8856 41.0125 62.2392 39.8556 62.5184C33.5758 64.0211 26.1797 63.0264 20.6329 59.6053C15.4118 56.3851 11.1899 50.992 9.7178 44.9782C8.60582 40.4355 9.13984 35.4226 11.6152 31.3972Z" fill="#144D4D" stroke="#144D4D" stroke-width="0.663152" stroke-linejoin="round"/>
<path d="M23.3445 16.2057C23.4236 16.199 23.5679 16.2052 23.6529 16.2063C23.5408 16.3554 22.1279 16.6731 21.8329 16.764C13.1072 19.452 7.70387 27.3624 6.55102 36.3421C5.71299 43.2737 8.05388 50.1702 11.9226 55.8277C13.0571 57.4866 14.2939 58.8222 15.5175 60.371C15.0645 60.0769 14.6145 59.7316 14.1786 59.4082C13.5482 58.8934 12.9729 58.4269 12.3678 57.8734C7.45114 53.3387 4.17874 46.563 3.88698 39.8083C3.45039 29.6989 9.69147 18.6396 20.0156 16.5235C21.1238 16.2964 22.2198 16.2543 23.3445 16.2057Z" fill="#144D4D" stroke="#144D4D" stroke-width="0.663152" stroke-linejoin="round"/>
<path d="M26.3 5.62012C27.2256 5.57085 28.1929 5.63259 29.1219 5.68994C33.3551 5.9511 37.1703 7.13662 40.7733 9.38016C45.861 12.5482 50.0992 18.119 51.4313 23.9899C52.4593 28.5234 51.9079 33.427 49.369 37.4034C49.5545 36.6347 49.8064 35.8514 49.969 35.0822C50.4417 32.8514 50.5015 30.8393 50.3328 28.5751C50.2618 27.8938 50.1551 27.2166 50.0126 26.5464C48.4107 19.0197 42.5345 12.2947 35.4081 9.42386C31.452 7.8302 26.8701 7.13489 22.6105 7.33938C20.2252 7.47612 17.8554 7.8091 15.5251 8.33489C16.1179 7.95179 16.8786 7.68334 17.5391 7.42078C20.5237 6.23459 23.1186 5.7622 26.3 5.62012Z" fill="#117473"/>
<path d="M26.3 5.62012C26.3 5.62012 26.3 5.62012 26.3 5.62012C27.242 5.59299 28.1799 5.6757 29.1179 5.75421C30.0622 5.83356 31.001 5.95976 31.9288 6.13772C35.0287 6.72386 37.9854 7.93317 40.6108 9.64111C45.6865 12.9819 49.5687 18.2466 50.891 24.1125C51.853 28.511 51.2548 33.305 48.8243 37.0557L49.9971 37.555C50.1794 36.8103 50.4304 36.0447 50.6089 35.2174C51.0929 33.0212 51.1683 30.7346 50.9941 28.5258C50.9938 28.5219 50.9928 28.5103 50.9924 28.5064C50.9873 28.4574 50.982 28.4085 50.9765 28.3595C50.9035 27.7046 50.7981 27.0533 50.6605 26.4087C48.9225 18.5237 43.0183 11.8807 35.6066 8.93102C31.4589 7.32678 26.9896 6.71485 22.5932 6.97983C20.1885 7.15538 17.805 7.53236 15.4732 8.10454L15.6533 8.53321C16.2346 8.14479 16.9269 7.88811 17.6106 7.60065C18.624 7.17417 19.661 6.80519 20.7218 6.51272C22.5346 6.0084 24.4134 5.74637 26.3 5.62012C26.3 5.62012 26.3 5.62012 26.3 5.62012C24.4101 5.65813 22.513 5.83617 20.6599 6.26845C19.5761 6.51869 18.5104 6.84953 17.4676 7.2409C16.7819 7.49951 16.0647 7.72805 15.397 8.13656C15.1679 8.28564 15.3107 8.62625 15.5771 8.56523C17.9034 8.08619 20.2649 7.79652 22.6311 7.69876C26.9247 7.57481 31.2627 8.29325 35.2095 9.91671C42.2134 12.8674 47.7576 19.293 49.3647 26.6843C49.4922 27.2863 49.5901 27.8947 49.6584 28.5065C49.6635 28.5523 49.6684 28.598 49.6732 28.6438L49.6715 28.6244C49.8385 30.7596 49.772 32.8766 49.3293 34.9466C49.1758 35.6842 48.9339 36.4425 48.7408 37.2518C48.5651 37.9819 49.5098 38.3843 49.9136 37.7511C52.5296 33.6419 53.0754 28.4905 51.9716 23.8674C50.4442 17.6774 46.2699 12.3808 40.9358 9.11921C38.1908 7.46376 35.1233 6.34822 31.971 5.88928C31.0272 5.74912 30.077 5.66318 29.1259 5.62566C28.1855 5.58886 27.2398 5.54891 26.3 5.62012ZM26.3 5.62012" fill="#117473"/>
<path d="M60.37 34.576C60.5095 34.9357 60.135 36.9852 60.0491 37.484C58.8977 44.0627 54.8244 50.4976 49.3363 54.3097C42.7068 58.9148 32.8994 60.1702 25.6206 56.3264C23.0735 54.9815 21.0012 53.2945 19.3712 50.9234C19.044 50.4157 18.5817 49.7571 18.3525 49.2235C20.778 51.7974 23.6637 53.8966 27.032 55.0509C33.0442 57.0899 39.8303 56.4191 45.4836 53.6123C50.9353 50.9056 55.046 46.251 57.8104 40.8908C58.8597 38.8559 59.6388 36.742 60.37 34.576Z" fill="#10918F" stroke="#10918F" stroke-width="1.3263" stroke-linejoin="round"/>
<path d="M45.72 8.42908C46.0163 8.51127 46.8288 9.16728 47.0961 9.37751C52.6353 13.731 56.2232 20.1439 57.0613 27.1882C58.3918 38.0124 51.2728 50.6884 39.9171 52.0869C39.6188 52.1569 37.8084 52.2287 37.4331 52.2441C38.2648 51.9159 39.2268 51.685 40.0879 51.3946C50.2696 47.9607 55.8925 36.4447 54.4842 26.0352C53.9122 21.8067 52.2002 17.5052 49.9213 13.9019C48.6968 11.966 47.2127 10.1736 45.72 8.42908Z" fill="#10918F" stroke="#10918F" stroke-width="1.3263" stroke-miterlimit="16" stroke-linejoin="round"/>
<path d="M12.276 13.9763C17.5513 10.6604 24.4724 9.37539 30.5931 10.7239C35.4324 11.7901 39.6109 14.6231 42.2409 18.7902C42.4564 19.0967 42.5714 19.3512 42.7332 19.6845C42.5092 19.4555 42.2833 19.2297 42.0735 18.9878C40.4689 17.3342 38.6045 15.9499 36.5531 14.8888C31.0363 12.0589 24.6833 11.9572 18.8118 13.7621C11.5658 15.9896 5.90006 21.806 2.66207 28.4976C2.13299 29.596 1.65383 30.7174 1.22633 31.8585C1.02267 32.4088 0.59039 33.7379 0.361997 34.1669L0.331543 34.223C0.732464 26.3249 5.55445 18.2012 12.276 13.9763Z" fill="#117473" stroke="#117473" stroke-width="0.663152" stroke-linejoin="round"/>
<path d="M80.4006 40.1745V13.6616C80.4006 9.52017 83.758 6.16284 87.8994 6.16284H98.5455L97.9627 8.97066H82.5992L83.7912 7.64622V22.2416L82.5992 20.9436H97.0621V23.7514H82.5992L83.7912 22.4005V38.6912L82.5992 37.3667H98.2276C98.4507 38.8446 97.3064 40.1745 95.8118 40.1745H80.4006Z" fill="#144D4D"/>
<path d="M128.937 40.3604C128.16 39.0007 127.269 37.376 126.262 35.4865C125.273 33.597 124.284 31.6544 123.295 29.6589C122.306 27.6635 121.423 25.8357 120.646 24.1758L122.395 25.5002C121.724 25.5885 121.008 25.6591 120.249 25.7121C119.49 25.7651 118.766 25.7916 118.077 25.7916H113.653V23.7784V36.599C113.653 38.4716 112.135 39.9896 110.263 39.9896V13.4767C110.263 9.33523 113.62 5.97791 117.762 5.97791H119.507C121.803 5.97791 123.772 6.27811 125.414 6.87853C127.074 7.46128 128.355 8.47669 129.255 9.92475C130.156 11.3728 130.606 13.4036 130.606 16.0172C130.606 18.8427 129.944 20.9883 128.619 22.454C127.295 23.9197 125.591 24.8556 123.507 25.2618L123.693 23.646C124.364 24.9174 125.052 26.2331 125.759 27.5928C126.465 28.9349 127.18 30.3035 127.904 31.6986C128.646 33.076 129.388 34.4446 130.129 35.8044C130.889 37.1465 131.639 38.4532 132.381 39.7247L128.937 40.3604ZM113.653 23.3546L112.461 22.9838H117.733C119.604 22.9838 121.247 22.8513 122.659 22.5864C124.09 22.3039 125.202 21.677 125.997 20.7057C126.809 19.7168 127.216 18.1716 127.216 16.0702C127.216 14.0923 126.933 12.5825 126.368 11.5406C125.82 10.481 124.99 9.75698 123.878 9.36848C122.765 8.97998 121.379 8.78572 119.719 8.78572H112.461L113.653 7.59373V23.3546Z" fill="#144D4D"/>
<path d="M148.487 37.0165C147.884 38.9257 145.966 40.0982 143.992 39.7641L153.035 10.7203C153.911 7.9072 156.515 5.99084 159.461 5.99084L169.501 39.7641L166.296 40.3469L163.223 30.2811L164.759 31.5261H149.051L150.614 30.2811L148.487 37.0165ZM150.508 30.0162L149.661 28.8507H163.859L163.011 30.0162L156.521 7.7656H157.21L150.508 30.0162Z" fill="#144D4D"/>
<path d="M190.701 40.5327C189.041 40.5327 187.389 40.3561 185.747 40.0029C184.122 39.6321 182.577 39.1199 181.112 38.4665L181.986 35.6852C182.922 36.1267 184.087 36.577 185.482 37.0362C186.895 37.4953 188.67 37.7249 190.806 37.7249C193.12 37.7249 194.903 37.1333 196.157 35.9501C197.429 34.7493 198.064 33.054 198.064 30.8642C198.064 29.2219 197.588 27.924 196.634 26.9704C195.698 25.9991 194.003 25.1073 191.548 24.295L188.29 23.209C185.782 22.379 183.955 21.2753 182.807 19.8979C181.677 18.5204 181.112 16.7545 181.112 14.6001C181.112 11.7746 182.048 9.60252 183.919 8.08383C185.809 6.56513 188.422 5.80579 191.76 5.80579C193.473 5.80579 195.045 5.94706 196.475 6.22961C197.906 6.4945 199.292 6.90066 200.634 7.4481L199.998 10.1764C198.709 9.68199 197.349 9.30232 195.919 9.03743C194.488 8.75488 193.164 8.61361 191.946 8.61361C189.456 8.61361 187.593 9.08158 186.356 10.0175C185.12 10.9358 184.502 12.4368 184.502 14.5206C184.502 15.9687 184.855 17.0989 185.562 17.9112C186.286 18.7235 187.557 19.4564 189.376 20.1098L192.396 21.1958C194.162 21.8315 195.725 22.5114 197.084 23.2355C198.444 23.9418 199.512 24.8866 200.29 26.0698C201.067 27.2529 201.455 28.8688 201.455 30.9172C201.455 33.9193 200.501 36.2768 198.594 37.9897C196.705 39.685 194.073 40.5327 190.701 40.5327Z" fill="#144D4D"/>
<path d="M91.7257 59.9071V61.5323H83.7443V59.9071H91.7257ZM84.1481 46.4598V61.5323H82.1501V46.4598H84.1481ZM90.6698 52.9402V54.5655H83.7443V52.9402H90.6698ZM91.6222 46.4598V48.0955H83.7443V46.4598H91.6222ZM101.221 59.6172V53.8512C101.221 53.4095 101.132 53.0265 100.952 52.7021C100.78 52.3708 100.517 52.1155 100.165 51.936C99.8134 51.7566 99.3786 51.6669 98.861 51.6669C98.3779 51.6669 97.9535 51.7497 97.5877 51.9153C97.2288 52.081 96.9459 52.2984 96.7388 52.5675C96.5387 52.8367 96.4386 53.1265 96.4386 53.4371H94.5235C94.5235 53.0368 94.627 52.64 94.8341 52.2466C95.0411 51.8532 95.3379 51.4978 95.7243 51.1804C96.1177 50.856 96.587 50.6006 97.1322 50.4143C97.6843 50.2211 98.2985 50.1245 98.9749 50.1245C99.7892 50.1245 100.507 50.2625 101.128 50.5385C101.756 50.8146 102.246 51.2321 102.598 51.7911C102.957 52.3432 103.136 53.0368 103.136 53.8719V59.0893C103.136 59.4619 103.167 59.8588 103.23 60.2798C103.299 60.7007 103.399 61.0631 103.53 61.3667V61.5323H101.532C101.435 61.3115 101.359 61.0182 101.304 60.6524C101.249 60.2798 101.221 59.9347 101.221 59.6172ZM101.553 54.7414L101.573 56.0872H99.6374C99.0922 56.0872 98.6057 56.1321 98.1778 56.2218C97.7499 56.3046 97.391 56.4323 97.1012 56.6048C96.8113 56.7773 96.5905 56.9947 96.4386 57.257C96.2868 57.5123 96.2109 57.8125 96.2109 58.1576C96.2109 58.5096 96.2903 58.8305 96.449 59.1203C96.6077 59.4102 96.8458 59.6414 97.1633 59.8139C97.4876 59.9795 97.8845 60.0624 98.3538 60.0624C98.9404 60.0624 99.458 59.9381 99.9066 59.6897C100.355 59.4412 100.711 59.1376 100.973 58.7787C101.242 58.4198 101.387 58.0713 101.408 57.7332L102.225 58.6545C102.177 58.9443 102.046 59.2653 101.832 59.6172C101.618 59.9692 101.332 60.3074 100.973 60.6317C100.621 60.9492 100.2 61.2149 99.7099 61.4288C99.2268 61.6359 98.6816 61.7394 98.0743 61.7394C97.3151 61.7394 96.6491 61.591 96.0763 61.2943C95.5104 60.9975 95.0687 60.6007 94.7513 60.1038C94.4407 59.6 94.2854 59.0375 94.2854 58.4164C94.2854 57.816 94.4027 57.288 94.6374 56.8325C94.872 56.3702 95.2102 55.9871 95.6519 55.6835C96.0936 55.3729 96.625 55.1383 97.2461 54.9795C97.8672 54.8208 98.5608 54.7414 99.3268 54.7414H101.553ZM108.771 52.0913V61.5323H106.856V50.3315H108.719L108.771 52.0913ZM112.27 50.2694L112.259 52.0499C112.101 52.0154 111.949 51.9947 111.804 51.9878C111.666 51.974 111.507 51.9671 111.328 51.9671C110.886 51.9671 110.496 52.0361 110.158 52.1741C109.82 52.3122 109.533 52.5054 109.299 52.7539C109.064 53.0023 108.878 53.2991 108.74 53.6441C108.608 53.9823 108.522 54.355 108.481 54.7621L107.942 55.0727C107.942 54.3964 108.008 53.7615 108.139 53.1679C108.277 52.5744 108.488 52.0499 108.771 51.5944C109.054 51.132 109.412 50.7732 109.847 50.5178C110.289 50.2556 110.813 50.1245 111.421 50.1245C111.559 50.1245 111.717 50.1417 111.897 50.1762C112.076 50.2038 112.201 50.2349 112.27 50.2694ZM116.827 45.6317V61.5323H114.902V45.6317H116.827ZM123.755 60.3729L126.871 50.3315H128.921L124.428 63.2611C124.325 63.5372 124.187 63.8339 124.014 64.1514C123.849 64.4758 123.635 64.7829 123.372 65.0727C123.11 65.3626 122.793 65.5972 122.42 65.7767C122.054 65.963 121.616 66.0562 121.105 66.0562C120.954 66.0562 120.76 66.0355 120.526 65.9941C120.291 65.9527 120.125 65.9181 120.029 65.8905L120.018 64.3377C120.074 64.3446 120.16 64.3515 120.277 64.3584C120.401 64.3722 120.488 64.3791 120.536 64.3791C120.971 64.3791 121.34 64.3205 121.644 64.2032C121.947 64.0927 122.203 63.903 122.41 63.6338C122.624 63.3716 122.807 63.0092 122.958 62.5468L123.755 60.3729ZM121.468 50.3315L124.377 59.0272L124.873 61.0458L123.497 61.7497L119.377 50.3315H121.468ZM137.612 46.4598H142.602C143.733 46.4598 144.689 46.6324 145.469 46.9774C146.256 47.3225 146.853 47.8332 147.26 48.5095C147.674 49.179 147.881 50.0037 147.881 50.9837C147.881 51.6738 147.74 52.3053 147.457 52.8781C147.181 53.444 146.78 53.9271 146.256 54.3274C145.738 54.7207 145.117 55.014 144.393 55.2073L143.834 55.4247H139.144L139.123 53.7994H142.664C143.381 53.7994 143.978 53.6752 144.455 53.4267C144.931 53.1714 145.29 52.8298 145.531 52.4019C145.773 51.974 145.894 51.5013 145.894 50.9837C145.894 50.404 145.78 49.8967 145.552 49.4619C145.324 49.0271 144.965 48.6924 144.475 48.4578C143.992 48.2162 143.368 48.0955 142.602 48.0955H139.61V61.5323H137.612V46.4598ZM146.422 61.5323L142.757 54.7L144.838 54.6897L148.554 61.4081V61.5323H146.422ZM153.174 50.3315V61.5323H151.248V50.3315H153.174ZM151.103 47.3605C151.103 47.0499 151.197 46.7877 151.383 46.5737C151.576 46.3598 151.859 46.2528 152.232 46.2528C152.598 46.2528 152.877 46.3598 153.07 46.5737C153.27 46.7877 153.37 47.0499 153.37 47.3605C153.37 47.6572 153.27 47.9126 153.07 48.1265C152.877 48.3336 152.598 48.4371 152.232 48.4371C151.859 48.4371 151.576 48.3336 151.383 48.1265C151.197 47.9126 151.103 47.6572 151.103 47.3605ZM163.477 58.5613C163.477 58.2853 163.415 58.0299 163.29 57.7953C163.173 57.5537 162.928 57.3363 162.555 57.1431C162.19 56.943 161.638 56.7704 160.899 56.6255C160.278 56.4944 159.716 56.3391 159.212 56.1597C158.715 55.9802 158.29 55.7628 157.938 55.5075C157.593 55.2521 157.328 54.9519 157.141 54.6069C156.955 54.2618 156.862 53.8581 156.862 53.3957C156.862 52.954 156.958 52.5365 157.152 52.1431C157.352 51.7497 157.631 51.4012 157.99 51.0975C158.356 50.7939 158.794 50.5558 159.305 50.3833C159.816 50.2107 160.385 50.1245 161.013 50.1245C161.91 50.1245 162.676 50.2832 163.311 50.6006C163.946 50.9181 164.433 51.3425 164.771 51.8739C165.109 52.3984 165.278 52.9816 165.278 53.6234H163.363C163.363 53.3129 163.27 53.0127 163.083 52.7228C162.904 52.426 162.638 52.181 162.286 51.9878C161.941 51.7946 161.517 51.698 161.013 51.698C160.482 51.698 160.05 51.7808 159.719 51.9464C159.395 52.1051 159.157 52.3087 159.005 52.5572C158.86 52.8056 158.787 53.0679 158.787 53.3439C158.787 53.551 158.822 53.7373 158.891 53.9029C158.967 54.0617 159.098 54.21 159.284 54.3481C159.471 54.4792 159.733 54.6034 160.071 54.7207C160.409 54.8381 160.84 54.9554 161.365 55.0727C162.283 55.2797 163.039 55.5282 163.632 55.818C164.226 56.1079 164.667 56.4633 164.957 56.8843C165.247 57.3053 165.392 57.816 165.392 58.4164C165.392 58.9064 165.288 59.355 165.081 59.7622C164.881 60.1693 164.588 60.5213 164.201 60.8181C163.822 61.1079 163.366 61.3357 162.835 61.5013C162.31 61.66 161.72 61.7394 161.065 61.7394C160.078 61.7394 159.243 61.5634 158.56 61.2114C157.876 60.8595 157.359 60.404 157.007 59.845C156.655 59.286 156.479 58.6959 156.479 58.0748H158.404C158.432 58.5993 158.584 59.0168 158.86 59.3274C159.136 59.631 159.474 59.8484 159.874 59.9795C160.275 60.1038 160.671 60.1659 161.065 60.1659C161.589 60.1659 162.027 60.0969 162.379 59.9588C162.738 59.8208 163.011 59.631 163.197 59.3895C163.384 59.1479 163.477 58.8719 163.477 58.5613ZM170.54 45.6317V61.5323H168.614V45.6317H170.54ZM177.382 50.3315L172.496 55.5592L169.763 58.3957L169.608 56.3564L171.564 54.0168L175.043 50.3315H177.382ZM175.633 61.5323L171.637 56.1907L172.631 54.4826L177.89 61.5323H175.633ZM191.901 47.7953L186.912 61.5323H184.872L190.618 46.4598H191.932L191.901 47.7953ZM196.083 61.5323L191.083 47.7953L191.052 46.4598H192.367L198.133 61.5323H196.083ZM195.825 55.9526V57.5882H187.357V55.9526H195.825ZM207.09 58.5613C207.09 58.2853 207.028 58.0299 206.904 57.7953C206.787 57.5537 206.542 57.3363 206.169 57.1431C205.803 56.943 205.251 56.7704 204.513 56.6255C203.892 56.4944 203.329 56.3391 202.825 56.1597C202.329 55.9802 201.904 55.7628 201.552 55.5075C201.207 55.2521 200.941 54.9519 200.755 54.6069C200.569 54.2618 200.475 53.8581 200.475 53.3957C200.475 52.954 200.572 52.5365 200.765 52.1431C200.965 51.7497 201.245 51.4012 201.604 51.0975C201.97 50.7939 202.408 50.5558 202.919 50.3833C203.429 50.2107 203.999 50.1245 204.627 50.1245C205.524 50.1245 206.29 50.2832 206.925 50.6006C207.56 50.9181 208.046 51.3425 208.384 51.8739C208.723 52.3984 208.892 52.9816 208.892 53.6234H206.977C206.977 53.3129 206.883 53.0127 206.697 52.7228C206.518 52.426 206.252 52.181 205.9 51.9878C205.555 51.7946 205.13 51.698 204.627 51.698C204.095 51.698 203.664 51.7808 203.333 51.9464C203.008 52.1051 202.77 52.3087 202.618 52.5572C202.473 52.8056 202.401 53.0679 202.401 53.3439C202.401 53.551 202.435 53.7373 202.504 53.9029C202.58 54.0617 202.712 54.21 202.898 54.3481C203.084 54.4792 203.346 54.6034 203.685 54.7207C204.023 54.8381 204.454 54.9554 204.979 55.0727C205.896 55.2797 206.652 55.5282 207.246 55.818C207.839 56.1079 208.281 56.4633 208.571 56.8843C208.861 57.3053 209.006 57.816 209.006 58.4164C209.006 58.9064 208.902 59.355 208.695 59.7622C208.495 60.1693 208.202 60.5213 207.815 60.8181C207.435 61.1079 206.98 61.3357 206.449 61.5013C205.924 61.66 205.334 61.7394 204.678 61.7394C203.692 61.7394 202.856 61.5634 202.173 61.2114C201.49 60.8595 200.972 60.404 200.62 59.845C200.268 59.286 200.092 58.6959 200.092 58.0748H202.018C202.046 58.5993 202.197 59.0168 202.473 59.3274C202.749 59.631 203.088 59.8484 203.488 59.9795C203.888 60.1038 204.285 60.1659 204.678 60.1659C205.203 60.1659 205.641 60.0969 205.993 59.9588C206.352 59.8208 206.625 59.631 206.811 59.3895C206.997 59.1479 207.09 58.8719 207.09 58.5613ZM218.75 58.5613C218.75 58.2853 218.687 58.0299 218.563 57.7953C218.446 57.5537 218.201 57.3363 217.828 57.1431C217.462 56.943 216.91 56.7704 216.172 56.6255C215.551 56.4944 214.988 56.3391 214.485 56.1597C213.988 55.9802 213.563 55.7628 213.211 55.5075C212.866 55.2521 212.6 54.9519 212.414 54.6069C212.228 54.2618 212.135 53.8581 212.135 53.3957C212.135 52.954 212.231 52.5365 212.424 52.1431C212.625 51.7497 212.904 51.4012 213.263 51.0975C213.629 50.7939 214.067 50.5558 214.578 50.3833C215.088 50.2107 215.658 50.1245 216.286 50.1245C217.183 50.1245 217.949 50.2832 218.584 50.6006C219.219 50.9181 219.705 51.3425 220.044 51.8739C220.382 52.3984 220.551 52.9816 220.551 53.6234H218.636C218.636 53.3129 218.542 53.0127 218.356 52.7228C218.177 52.426 217.911 52.181 217.559 51.9878C217.214 51.7946 216.79 51.698 216.286 51.698C215.754 51.698 215.323 51.7808 214.992 51.9464C214.667 52.1051 214.429 52.3087 214.277 52.5572C214.133 52.8056 214.06 53.0679 214.06 53.3439C214.06 53.551 214.095 53.7373 214.164 53.9029C214.24 54.0617 214.371 54.21 214.557 54.3481C214.743 54.4792 215.006 54.6034 215.344 54.7207C215.682 54.8381 216.113 54.9554 216.638 55.0727C217.556 55.2797 218.311 55.5282 218.905 55.818C219.498 56.1079 219.94 56.4633 220.23 56.8843C220.52 57.3053 220.665 57.816 220.665 58.4164C220.665 58.9064 220.561 59.355 220.354 59.7622C220.154 60.1693 219.861 60.5213 219.474 60.8181C219.095 61.1079 218.639 61.3357 218.108 61.5013C217.583 61.66 216.993 61.7394 216.338 61.7394C215.351 61.7394 214.516 61.5634 213.832 61.2114C213.149 60.8595 212.632 60.404 212.28 59.845C211.928 59.286 211.752 58.6959 211.752 58.0748H213.677C213.705 58.5993 213.856 59.0168 214.133 59.3274C214.409 59.631 214.747 59.8484 215.147 59.9795C215.547 60.1038 215.944 60.1659 216.338 60.1659C216.862 60.1659 217.3 60.0969 217.652 59.9588C218.011 59.8208 218.284 59.631 218.47 59.3895C218.656 59.1479 218.75 58.8719 218.75 58.5613ZM225.968 50.3315V61.5323H224.042V50.3315H225.968ZM223.897 47.3605C223.897 47.0499 223.99 46.7877 224.177 46.5737C224.37 46.3598 224.653 46.2528 225.026 46.2528C225.391 46.2528 225.671 46.3598 225.864 46.5737C226.064 46.7877 226.164 47.0499 226.164 47.3605C226.164 47.6572 226.064 47.9126 225.864 48.1265C225.671 48.3336 225.391 48.4371 225.026 48.4371C224.653 48.4371 224.37 48.3336 224.177 48.1265C223.99 47.9126 223.897 47.6572 223.897 47.3605ZM236.271 58.5613C236.271 58.2853 236.209 58.0299 236.084 57.7953C235.967 57.5537 235.722 57.3363 235.349 57.1431C234.984 56.943 234.431 56.7704 233.693 56.6255C233.072 56.4944 232.509 56.3391 232.006 56.1597C231.509 55.9802 231.084 55.7628 230.732 55.5075C230.387 55.2521 230.122 54.9519 229.935 54.6069C229.749 54.2618 229.656 53.8581 229.656 53.3957C229.656 52.954 229.752 52.5365 229.946 52.1431C230.146 51.7497 230.425 51.4012 230.784 51.0975C231.15 50.7939 231.588 50.5558 232.099 50.3833C232.609 50.2107 233.179 50.1245 233.807 50.1245C234.704 50.1245 235.47 50.2832 236.105 50.6006C236.74 50.9181 237.226 51.3425 237.565 51.8739C237.903 52.3984 238.072 52.9816 238.072 53.6234H236.157C236.157 53.3129 236.064 53.0127 235.877 52.7228C235.698 52.426 235.432 52.181 235.08 51.9878C234.735 51.7946 234.311 51.698 233.807 51.698C233.275 51.698 232.844 51.7808 232.513 51.9464C232.188 52.1051 231.95 52.3087 231.799 52.5572C231.654 52.8056 231.581 53.0679 231.581 53.3439C231.581 53.551 231.616 53.7373 231.685 53.9029C231.761 54.0617 231.892 54.21 232.078 54.3481C232.264 54.4792 232.527 54.6034 232.865 54.7207C233.203 54.8381 233.634 54.9554 234.159 55.0727C235.077 55.2797 235.832 55.5282 236.426 55.818C237.019 56.1079 237.461 56.4633 237.751 56.8843C238.041 57.3053 238.186 57.816 238.186 58.4164C238.186 58.9064 238.082 59.355 237.875 59.7622C237.675 60.1693 237.382 60.5213 236.995 60.8181C236.616 61.1079 236.16 61.3357 235.629 61.5013C235.104 61.66 234.514 61.7394 233.859 61.7394C232.872 61.7394 232.037 61.5634 231.353 61.2114C230.67 60.8595 230.153 60.404 229.801 59.845C229.449 59.286 229.273 58.6959 229.273 58.0748H231.198C231.226 58.5993 231.378 59.0168 231.654 59.3274C231.93 59.631 232.268 59.8484 232.668 59.9795C233.068 60.1038 233.465 60.1659 233.859 60.1659C234.383 60.1659 234.821 60.0969 235.173 59.9588C235.532 59.8208 235.805 59.631 235.991 59.3895C236.177 59.1479 236.271 58.8719 236.271 58.5613ZM246.097 50.3315V51.8015H240.042V50.3315H246.097ZM242.091 47.6089H244.006V58.758C244.006 59.1376 244.065 59.424 244.182 59.6172C244.3 59.8105 244.451 59.9381 244.638 60.0003C244.824 60.0624 245.024 60.0934 245.238 60.0934C245.397 60.0934 245.563 60.0796 245.735 60.052C245.915 60.0175 246.049 59.9899 246.139 59.9692L246.149 61.5323C245.997 61.5807 245.797 61.6255 245.549 61.6669C245.307 61.7152 245.014 61.7394 244.669 61.7394C244.2 61.7394 243.768 61.6462 243.375 61.4599C242.981 61.2735 242.667 60.963 242.433 60.5282C242.205 60.0865 242.091 59.493 242.091 58.7477V47.6089ZM255.655 59.6172V53.8512C255.655 53.4095 255.565 53.0265 255.386 52.7021C255.213 52.3708 254.951 52.1155 254.599 51.936C254.247 51.7566 253.812 51.6669 253.295 51.6669C252.812 51.6669 252.387 51.7497 252.022 51.9153C251.663 52.081 251.38 52.2984 251.173 52.5675C250.973 52.8367 250.872 53.1265 250.872 53.4371H248.957C248.957 53.0368 249.061 52.64 249.268 52.2466C249.475 51.8532 249.772 51.4978 250.158 51.1804C250.552 50.856 251.021 50.6006 251.566 50.4143C252.118 50.2211 252.732 50.1245 253.409 50.1245C254.223 50.1245 254.941 50.2625 255.562 50.5385C256.19 50.8146 256.68 51.2321 257.032 51.7911C257.391 52.3432 257.57 53.0368 257.57 53.8719V59.0893C257.57 59.4619 257.601 59.8588 257.663 60.2798C257.732 60.7007 257.832 61.0631 257.964 61.3667V61.5323H255.966C255.869 61.3115 255.793 61.0182 255.738 60.6524C255.683 60.2798 255.655 59.9347 255.655 59.6172ZM255.986 54.7414L256.007 56.0872H254.071C253.526 56.0872 253.039 56.1321 252.612 56.2218C252.184 56.3046 251.825 56.4323 251.535 56.6048C251.245 56.7773 251.024 56.9947 250.872 57.257C250.721 57.5123 250.645 57.8125 250.645 58.1576C250.645 58.5096 250.724 58.8305 250.883 59.1203C251.042 59.4102 251.28 59.6414 251.597 59.8139C251.921 59.9795 252.318 60.0624 252.788 60.0624C253.374 60.0624 253.892 59.9381 254.34 59.6897C254.789 59.4412 255.144 59.1376 255.407 58.7787C255.676 58.4198 255.821 58.0713 255.841 57.7332L256.659 58.6545C256.611 58.9443 256.48 59.2653 256.266 59.6172C256.052 59.9692 255.766 60.3074 255.407 60.6317C255.055 60.9492 254.634 61.2149 254.144 61.4288C253.661 61.6359 253.115 61.7394 252.508 61.7394C251.749 61.7394 251.083 61.591 250.51 61.2943C249.944 60.9975 249.503 60.6007 249.185 60.1038C248.875 59.6 248.719 59.0375 248.719 58.4164C248.719 57.816 248.837 57.288 249.071 56.8325C249.306 56.3702 249.644 55.9871 250.086 55.6835C250.527 55.3729 251.059 55.1383 251.68 54.9795C252.301 54.8208 252.995 54.7414 253.761 54.7414H255.986ZM263.204 52.7228V61.5323H261.289V50.3315H263.101L263.204 52.7228ZM262.749 55.5075L261.952 55.4764C261.959 54.7104 262.073 54.003 262.293 53.3543C262.514 52.6986 262.825 52.1293 263.225 51.6462C263.625 51.1631 264.102 50.7904 264.654 50.5282C265.213 50.259 265.83 50.1245 266.507 50.1245C267.059 50.1245 267.556 50.2004 267.997 50.3522C268.439 50.4971 268.815 50.7318 269.126 51.0561C269.443 51.3805 269.685 51.8015 269.85 52.3191C270.016 52.8298 270.099 53.4543 270.099 54.1928V61.5323H268.173V54.1721C268.173 53.5855 268.087 53.1162 267.915 52.7642C267.742 52.4053 267.49 52.1465 267.159 51.9878C266.828 51.8222 266.42 51.7394 265.937 51.7394C265.461 51.7394 265.026 51.8394 264.633 52.0396C264.247 52.2397 263.912 52.5158 263.629 52.8677C263.353 53.2197 263.135 53.6234 262.977 54.0789C262.825 54.5275 262.749 55.0037 262.749 55.5075ZM278.197 60.1659C278.652 60.1659 279.073 60.0727 279.46 59.8864C279.846 59.7 280.164 59.4447 280.412 59.1203C280.661 58.7891 280.802 58.4129 280.837 57.992H282.659C282.624 58.6545 282.4 59.2722 281.986 59.845C281.579 60.4109 281.044 60.8698 280.381 61.2218C279.719 61.5669 278.991 61.7394 278.197 61.7394C277.355 61.7394 276.62 61.591 275.992 61.2943C275.371 60.9975 274.853 60.5903 274.439 60.0727C274.032 59.5551 273.725 58.9616 273.518 58.2922C273.318 57.6158 273.218 56.9016 273.218 56.1493V55.7145C273.218 54.9623 273.318 54.2514 273.518 53.582C273.725 52.9057 274.032 52.3087 274.439 51.7911C274.853 51.2735 275.371 50.8663 275.992 50.5696C276.62 50.2728 277.355 50.1245 278.197 50.1245C279.073 50.1245 279.839 50.3039 280.495 50.6628C281.151 51.0147 281.665 51.4978 282.037 52.112C282.417 52.7194 282.624 53.4095 282.659 54.1824H280.837C280.802 53.72 280.671 53.3025 280.443 52.9298C280.222 52.5572 279.919 52.2604 279.532 52.0396C279.153 51.8118 278.708 51.698 278.197 51.698C277.61 51.698 277.117 51.8153 276.717 52.0499C276.323 52.2777 276.009 52.5882 275.775 52.9816C275.547 53.3681 275.381 53.7994 275.278 54.2756C275.181 54.7449 275.133 55.2245 275.133 55.7145V56.1493C275.133 56.6393 275.181 57.1224 275.278 57.5986C275.374 58.0748 275.536 58.5061 275.764 58.8926C275.999 59.2791 276.313 59.5896 276.706 59.8243C277.106 60.052 277.603 60.1659 278.197 60.1659ZM290.167 61.7394C289.387 61.7394 288.679 61.6083 288.044 61.346C287.416 61.0769 286.875 60.7007 286.419 60.2176C285.971 59.7346 285.625 59.1617 285.384 58.4992C285.142 57.8367 285.022 57.112 285.022 56.3253V55.8905C285.022 54.9795 285.156 54.1686 285.425 53.4578C285.694 52.7401 286.06 52.1327 286.523 51.6358C286.985 51.1389 287.51 50.7628 288.096 50.5075C288.683 50.2521 289.29 50.1245 289.918 50.1245C290.719 50.1245 291.409 50.2625 291.989 50.5385C292.575 50.8146 293.055 51.2011 293.427 51.698C293.8 52.1879 294.076 52.7677 294.256 53.4371C294.435 54.0996 294.525 54.8243 294.525 55.611V56.4702H286.16V54.9071H292.61V54.7621C292.582 54.2652 292.479 53.7822 292.299 53.3129C292.127 52.8436 291.85 52.4571 291.471 52.1534C291.091 51.8498 290.574 51.698 289.918 51.698C289.483 51.698 289.083 51.7911 288.717 51.9775C288.352 52.1569 288.038 52.426 287.775 52.7849C287.513 53.1438 287.309 53.582 287.164 54.0996C287.02 54.6172 286.947 55.2142 286.947 55.8905V56.3253C286.947 56.8567 287.02 57.357 287.164 57.8263C287.316 58.2887 287.534 58.6959 287.817 59.0479C288.107 59.3998 288.455 59.6759 288.862 59.876C289.276 60.0762 289.746 60.1762 290.27 60.1762C290.946 60.1762 291.519 60.0382 291.989 59.7622C292.458 59.4861 292.868 59.1169 293.22 58.6545L294.38 59.5758C294.138 59.9416 293.831 60.2901 293.458 60.6214C293.086 60.9526 292.627 61.2218 292.082 61.4288C291.543 61.6359 290.905 61.7394 290.167 61.7394ZM311.756 57.7228C311.756 57.3708 311.701 57.0603 311.59 56.7911C311.487 56.5151 311.301 56.2666 311.031 56.0458C310.769 55.8249 310.403 55.6145 309.934 55.4143C309.472 55.2142 308.885 55.0106 308.174 54.8036C307.429 54.5827 306.756 54.3377 306.156 54.0686C305.555 53.7925 305.041 53.4785 304.613 53.1265C304.185 52.7746 303.857 52.3708 303.63 51.9153C303.402 51.4599 303.288 50.9388 303.288 50.3522C303.288 49.7656 303.409 49.2238 303.65 48.7269C303.892 48.23 304.237 47.7987 304.686 47.4329C305.141 47.0603 305.683 46.7704 306.311 46.5634C306.939 46.3563 307.639 46.2528 308.412 46.2528C309.544 46.2528 310.503 46.4702 311.29 46.905C312.084 47.3329 312.688 47.8953 313.102 48.5924C313.516 49.2825 313.723 50.0209 313.723 50.8077H311.735C311.735 50.2418 311.615 49.7414 311.373 49.3066C311.131 48.865 310.766 48.5199 310.276 48.2714C309.786 48.0161 309.165 47.8884 308.412 47.8884C307.701 47.8884 307.115 47.9954 306.652 48.2093C306.19 48.4233 305.845 48.7131 305.617 49.0789C305.396 49.4447 305.286 49.8622 305.286 50.3315C305.286 50.649 305.352 50.9388 305.483 51.2011C305.621 51.4564 305.831 51.6945 306.114 51.9153C306.404 52.1362 306.77 52.3398 307.211 52.5261C307.66 52.7124 308.195 52.8919 308.816 53.0644C309.672 53.306 310.41 53.5751 311.031 53.8719C311.652 54.1686 312.163 54.5033 312.563 54.876C312.971 55.2418 313.271 55.6593 313.464 56.1286C313.664 56.591 313.764 57.1155 313.764 57.7021C313.764 58.3163 313.64 58.8719 313.392 59.3688C313.143 59.8657 312.788 60.2901 312.325 60.6421C311.863 60.994 311.307 61.2666 310.659 61.4599C310.017 61.6462 309.299 61.7394 308.505 61.7394C307.808 61.7394 307.122 61.6428 306.445 61.4495C305.776 61.2563 305.165 60.9664 304.613 60.58C304.068 60.1935 303.63 59.7173 303.298 59.1514C302.974 58.5786 302.812 57.9161 302.812 57.1638H304.799C304.799 57.6814 304.9 58.1265 305.1 58.4992C305.3 58.865 305.572 59.1686 305.917 59.4102C306.269 59.6517 306.666 59.8312 307.108 59.9485C307.557 60.0589 308.022 60.1141 308.505 60.1141C309.203 60.1141 309.793 60.0175 310.276 59.8243C310.759 59.631 311.125 59.355 311.373 58.9961C311.628 58.6372 311.756 58.2128 311.756 57.7228ZM316.22 56.0561V55.818C316.22 55.0106 316.338 54.2618 316.572 53.5717C316.807 52.8746 317.145 52.2708 317.587 51.7601C318.029 51.2425 318.563 50.8422 319.191 50.5592C319.82 50.2694 320.523 50.1245 321.303 50.1245C322.09 50.1245 322.797 50.2694 323.425 50.5592C324.06 50.8422 324.599 51.2425 325.04 51.7601C325.489 52.2708 325.831 52.8746 326.065 53.5717C326.3 54.2618 326.417 55.0106 326.417 55.818V56.0561C326.417 56.8636 326.3 57.6124 326.065 58.3025C325.831 58.9927 325.489 59.5965 325.04 60.1141C324.599 60.6248 324.064 61.0251 323.436 61.315C322.815 61.5979 322.111 61.7394 321.324 61.7394C320.537 61.7394 319.83 61.5979 319.202 61.315C318.574 61.0251 318.036 60.6248 317.587 60.1141C317.145 59.5965 316.807 58.9927 316.572 58.3025C316.338 57.6124 316.22 56.8636 316.22 56.0561ZM318.136 55.818V56.0561C318.136 56.6152 318.201 57.1431 318.332 57.64C318.463 58.13 318.66 58.5648 318.922 58.9443C319.191 59.3239 319.526 59.6241 319.926 59.845C320.327 60.0589 320.793 60.1659 321.324 60.1659C321.848 60.1659 322.307 60.0589 322.701 59.845C323.101 59.6241 323.432 59.3239 323.695 58.9443C323.957 58.5648 324.154 58.13 324.285 57.64C324.423 57.1431 324.492 56.6152 324.492 56.0561V55.818C324.492 55.2659 324.423 54.7449 324.285 54.2549C324.154 53.758 323.953 53.3198 323.684 52.9402C323.422 52.5537 323.091 52.2501 322.69 52.0292C322.297 51.8084 321.835 51.698 321.303 51.698C320.779 51.698 320.316 51.8084 319.916 52.0292C319.523 52.2501 319.191 52.5537 318.922 52.9402C318.66 53.3198 318.463 53.758 318.332 54.2549C318.201 54.7449 318.136 55.2659 318.136 55.818ZM331.606 45.6317V61.5323H329.681V45.6317H331.606ZM342.241 58.9443V50.3315H344.166V61.5323H342.334L342.241 58.9443ZM342.603 56.5841L343.4 56.5634C343.4 57.3087 343.321 57.9989 343.162 58.6338C343.01 59.2618 342.762 59.807 342.417 60.2694C342.071 60.7318 341.619 61.0941 341.06 61.3564C340.501 61.6117 339.822 61.7394 339.021 61.7394C338.476 61.7394 337.976 61.66 337.52 61.5013C337.071 61.3426 336.685 61.0976 336.361 60.7663C336.036 60.435 335.784 60.0037 335.605 59.4723C335.432 58.9409 335.346 58.3025 335.346 57.5572V50.3315H337.261V57.5779C337.261 58.0817 337.316 58.4992 337.427 58.8305C337.544 59.1548 337.699 59.4136 337.893 59.6069C338.093 59.7932 338.314 59.9243 338.555 60.0003C338.804 60.0762 339.059 60.1141 339.321 60.1141C340.136 60.1141 340.781 59.9588 341.257 59.6483C341.733 59.3308 342.075 58.9064 342.282 58.375C342.496 57.8367 342.603 57.2397 342.603 56.5841ZM352.481 50.3315V51.8015H346.426V50.3315H352.481ZM348.475 47.6089H350.39V58.758C350.39 59.1376 350.449 59.424 350.566 59.6172C350.684 59.8105 350.835 59.9381 351.022 60.0003C351.208 60.0624 351.408 60.0934 351.622 60.0934C351.781 60.0934 351.947 60.0796 352.119 60.052C352.299 60.0175 352.433 59.9899 352.523 59.9692L352.533 61.5323C352.381 61.5807 352.181 61.6255 351.933 61.6669C351.691 61.7152 351.398 61.7394 351.053 61.7394C350.584 61.7394 350.152 61.6462 349.759 61.4599C349.365 61.2735 349.051 60.963 348.817 60.5282C348.589 60.0865 348.475 59.493 348.475 58.7477V47.6089ZM357.515 50.3315V61.5323H355.59V50.3315H357.515ZM355.445 47.3605C355.445 47.0499 355.538 46.7877 355.724 46.5737C355.918 46.3598 356.201 46.2528 356.573 46.2528C356.939 46.2528 357.219 46.3598 357.412 46.5737C357.612 46.7877 357.712 47.0499 357.712 47.3605C357.712 47.6572 357.612 47.9126 357.412 48.1265C357.219 48.3336 356.939 48.4371 356.573 48.4371C356.201 48.4371 355.918 48.3336 355.724 48.1265C355.538 47.9126 355.445 47.6572 355.445 47.3605ZM360.789 56.0561V55.818C360.789 55.0106 360.907 54.2618 361.141 53.5717C361.376 52.8746 361.714 52.2708 362.156 51.7601C362.597 51.2425 363.132 50.8422 363.76 50.5592C364.388 50.2694 365.092 50.1245 365.872 50.1245C366.659 50.1245 367.366 50.2694 367.994 50.5592C368.629 50.8422 369.167 51.2425 369.609 51.7601C370.058 52.2708 370.399 52.8746 370.634 53.5717C370.869 54.2618 370.986 55.0106 370.986 55.818V56.0561C370.986 56.8636 370.869 57.6124 370.634 58.3025C370.399 58.9927 370.058 59.5965 369.609 60.1141C369.167 60.6248 368.633 61.0251 368.005 61.315C367.383 61.5979 366.68 61.7394 365.893 61.7394C365.106 61.7394 364.399 61.5979 363.771 61.315C363.143 61.0251 362.604 60.6248 362.156 60.1141C361.714 59.5965 361.376 58.9927 361.141 58.3025C360.907 57.6124 360.789 56.8636 360.789 56.0561ZM362.704 55.818V56.0561C362.704 56.6152 362.77 57.1431 362.901 57.64C363.032 58.13 363.229 58.5648 363.491 58.9443C363.76 59.3239 364.095 59.6241 364.495 59.845C364.896 60.0589 365.361 60.1659 365.893 60.1659C366.417 60.1659 366.876 60.0589 367.27 59.845C367.67 59.6241 368.001 59.3239 368.263 58.9443C368.526 58.5648 368.722 58.13 368.853 57.64C368.991 57.1431 369.06 56.6152 369.06 56.0561V55.818C369.06 55.2659 368.991 54.7449 368.853 54.2549C368.722 53.758 368.522 53.3198 368.253 52.9402C367.991 52.5537 367.66 52.2501 367.259 52.0292C366.866 51.8084 366.403 51.698 365.872 51.698C365.348 51.698 364.885 51.8084 364.485 52.0292C364.092 52.2501 363.76 52.5537 363.491 52.9402C363.229 53.3198 363.032 53.758 362.901 54.2549C362.77 54.7449 362.704 55.2659 362.704 55.818ZM376.009 52.7228V61.5323H374.094V50.3315H375.906L376.009 52.7228ZM375.554 55.5075L374.757 55.4764C374.764 54.7104 374.878 54.003 375.098 53.3543C375.319 52.6986 375.63 52.1293 376.03 51.6462C376.43 51.1631 376.907 50.7904 377.459 50.5282C378.018 50.259 378.635 50.1245 379.312 50.1245C379.864 50.1245 380.361 50.2004 380.802 50.3522C381.244 50.4971 381.62 50.7318 381.931 51.0561C382.248 51.3805 382.49 51.8015 382.655 52.3191C382.821 52.8298 382.904 53.4543 382.904 54.1928V61.5323H380.978V54.1721C380.978 53.5855 380.892 53.1162 380.72 52.7642C380.547 52.4053 380.295 52.1465 379.964 51.9878C379.633 51.8222 379.225 51.7394 378.742 51.7394C378.266 51.7394 377.831 51.8394 377.438 52.0396C377.052 52.2397 376.717 52.5158 376.434 52.8677C376.158 53.2197 375.94 53.6234 375.782 54.0789C375.63 54.5275 375.554 55.0037 375.554 55.5075Z" fill="#144D4D"/>
</svg>
