<svg width="387" height="69" viewBox="0 0 387 69" fill="none" xmlns="http://www.w3.org/2000/svg">
<path d="M11.6152 31.397C11.69 31.5939 11.2737 32.9615 11.2043 33.2654C11.0542 33.9157 10.9311 34.5721 10.8354 35.2327C9.71663 43.2777 13.7148 51.0658 19.8891 55.9765C26.392 61.1486 35.1679 62.3279 43.1471 60.9114C43.9472 60.7693 44.7553 60.5668 45.56 60.465C44.7682 60.842 44.0708 61.1352 43.2619 61.4597C42.1502 61.8854 41.0125 62.239 39.8556 62.5181C33.5758 64.0208 26.1797 63.0261 20.6329 59.6051C15.4118 56.3849 11.1899 50.9918 9.7178 44.9779C8.60582 40.4352 9.13984 35.4223 11.6152 31.397Z" fill="#19BFB9" stroke="#19BFB9" stroke-width="0.663152" stroke-linejoin="round"/>
<path d="M23.3445 16.2054C23.4236 16.1988 23.5679 16.2049 23.6529 16.2061C23.5408 16.3552 22.1279 16.6728 21.8329 16.7637C13.1072 19.4518 7.70387 27.3622 6.55102 36.3419C5.71299 43.2735 8.05388 50.17 11.9226 55.8275C13.0571 57.4864 14.2939 58.8219 15.5175 60.3708C15.0645 60.0766 14.6145 59.7314 14.1786 59.408C13.5482 58.8932 12.9729 58.4267 12.3678 57.8732C7.45114 53.3385 4.17874 46.5627 3.88698 39.8081C3.45039 29.6986 9.69147 18.6393 20.0156 16.5233C21.1238 16.2961 22.2198 16.254 23.3445 16.2054Z" fill="#19BFB9" stroke="#19BFB9" stroke-width="0.663152" stroke-linejoin="round"/>
<path d="M26.3 5.61988C27.2256 5.57061 28.1929 5.63235 29.1219 5.68969C33.3551 5.95086 37.1703 7.13638 40.7733 9.37991C45.861 12.548 50.0992 18.1187 51.4313 23.9897C52.4593 28.5232 51.9079 33.4267 49.369 37.4032C49.5545 36.6345 49.8064 35.8512 49.969 35.0819C50.4417 32.8511 50.5015 30.8391 50.3328 28.5749C50.2618 27.8935 50.1551 27.2164 50.0126 26.5462C48.4107 19.0195 42.5345 12.2944 35.4081 9.42362C31.452 7.82996 26.8701 7.13465 22.6105 7.33914C20.2252 7.47587 17.8554 7.80886 15.5251 8.33464C16.1179 7.95155 16.8786 7.68309 17.5391 7.42053C20.5237 6.23435 23.1186 5.76196 26.3 5.61988Z" fill="#CDFAF3"/>
<path d="M26.3 5.61988C26.3 5.61988 26.3 5.61988 26.3 5.61988C27.242 5.59274 28.1799 5.67545 29.1179 5.75397C30.0622 5.83332 31.001 5.95951 31.9288 6.13747C35.0287 6.72362 37.9854 7.93293 40.6108 9.64087C45.6865 12.9816 49.5687 18.2463 50.891 24.1123C51.853 28.5108 51.2548 33.3047 48.8243 37.0554L49.9971 37.5547C50.1794 36.8101 50.4304 36.0445 50.6089 35.2171C51.0929 33.021 51.1683 30.7343 50.9941 28.5256C50.9938 28.5217 50.9928 28.5101 50.9924 28.5062C50.9873 28.4572 50.982 28.4082 50.9765 28.3592C50.9035 27.7044 50.7981 27.053 50.6605 26.4084C48.9225 18.5235 43.0183 11.8805 35.6066 8.93078C31.4589 7.32654 26.9896 6.71461 22.5932 6.97959C20.1885 7.15514 17.805 7.53211 15.4732 8.10429L15.6533 8.53297C16.2346 8.14455 16.9269 7.88787 17.6106 7.6004C18.624 7.17392 19.661 6.80495 20.7218 6.51248C22.5346 6.00815 24.4134 5.74612 26.3 5.61988C26.3 5.61988 26.3 5.61988 26.3 5.61988C24.4101 5.65789 22.513 5.83592 20.6599 6.26821C19.5761 6.51844 18.5104 6.84929 17.4676 7.24066C16.7819 7.49926 16.0647 7.7278 15.397 8.13631C15.1679 8.2854 15.3107 8.62601 15.5771 8.56499C17.9034 8.08594 20.2649 7.79627 22.6311 7.69852C26.9247 7.57457 31.2627 8.29301 35.2095 9.91646C42.2134 12.8671 47.7576 19.2927 49.3647 26.6841C49.4922 27.286 49.5901 27.8944 49.6584 28.5063C49.6635 28.552 49.6684 28.5978 49.6732 28.6436L49.6715 28.6242C49.8385 30.7593 49.772 32.8763 49.3293 34.9464C49.1758 35.6839 48.9339 36.4423 48.7408 37.2516C48.5651 37.9816 49.5098 38.384 49.9136 37.7509C52.5296 33.6417 53.0754 28.4903 51.9716 23.8672C50.4442 17.6772 46.2699 12.3806 40.9358 9.11896C38.1908 7.46351 35.1233 6.34798 31.971 5.88904C31.0272 5.74888 30.077 5.66293 29.1259 5.62542C28.1855 5.58862 27.2398 5.54866 26.3 5.61988ZM26.3 5.61988" fill="#CDFAF3"/>
<path d="M60.37 34.5759C60.5095 34.9356 60.135 36.9851 60.0491 37.4838C58.8977 44.0625 54.8244 50.4975 49.3363 54.3096C42.7068 58.9147 32.8994 60.1701 25.6206 56.3262C23.0735 54.9814 21.0012 53.2944 19.3712 50.9233C19.044 50.4155 18.5817 49.7569 18.3525 49.2234C20.778 51.7972 23.6637 53.8965 27.032 55.0507C33.0442 57.0898 39.8303 56.419 45.4836 53.6121C50.9353 50.9054 55.046 46.2508 57.8104 40.8906C58.8597 38.8558 59.6388 36.7418 60.37 34.5759Z" fill="#F0FDFB" stroke="#F0FDFB" stroke-width="1.3263" stroke-linejoin="round"/>
<path d="M45.72 8.42896C46.0163 8.51115 46.8288 9.16715 47.0961 9.37739C52.6353 13.7309 56.2232 20.1438 57.0613 27.1881C58.3918 38.0122 51.2728 50.6883 39.9171 52.0868C39.6188 52.1568 37.8084 52.2286 37.4331 52.244C38.2648 51.9158 39.2268 51.6849 40.0879 51.3945C50.2696 47.9606 55.8925 36.4445 54.4842 26.0351C53.9122 21.8066 52.2002 17.5051 49.9213 13.9018C48.6968 11.9658 47.2127 10.1734 45.72 8.42896Z" fill="#F0FDFB" stroke="#F0FDFB" stroke-width="1.3263" stroke-miterlimit="16" stroke-linejoin="round"/>
<path d="M12.276 13.976C17.5513 10.6602 24.4724 9.37514 30.5931 10.7237C35.4324 11.7898 39.6109 14.6228 42.2409 18.7899C42.4564 19.0964 42.5714 19.351 42.7332 19.6842C42.5092 19.4553 42.2833 19.2295 42.0735 18.9876C40.4689 17.3339 38.6045 15.9497 36.5531 14.8886C31.0364 12.0587 24.6833 11.9569 18.8118 13.7618C11.5658 15.9893 5.90006 21.8058 2.66207 28.4974C2.13299 29.5958 1.65383 30.7171 1.22633 31.8582C1.02267 32.4085 0.59039 33.7377 0.361997 34.1667L0.331543 34.2228C0.732464 26.3247 5.55445 18.201 12.276 13.976Z" fill="#CDFAF3" stroke="#CDFAF3" stroke-width="0.663152" stroke-linejoin="round"/>
<path d="M80.4006 40.1747V13.6618C80.4006 9.52029 83.758 6.16296 87.8994 6.16296H98.5455L97.9627 8.97078H82.5992L83.7912 7.64634V22.2417L82.5992 20.9437H97.0621V23.7516H82.5992L83.7912 22.4006V38.6913L82.5992 37.3668H98.2276C98.4507 38.8447 97.3064 40.1747 95.8118 40.1747H80.4006Z" fill="#F0FDFB"/>
<path d="M128.937 40.3604C128.16 39.0007 127.269 37.376 126.262 35.4865C125.273 33.597 124.284 31.6544 123.295 29.6589C122.306 27.6635 121.423 25.8357 120.646 24.1758L122.395 25.5002C121.724 25.5885 121.008 25.6591 120.249 25.7121C119.49 25.7651 118.766 25.7916 118.077 25.7916H113.653V23.7784V36.599C113.653 38.4716 112.135 39.9896 110.263 39.9896V13.4767C110.263 9.33523 113.62 5.97791 117.762 5.97791H119.507C121.803 5.97791 123.772 6.27811 125.414 6.87853C127.074 7.46128 128.355 8.47669 129.255 9.92475C130.156 11.3728 130.606 13.4036 130.606 16.0172C130.606 18.8427 129.944 20.9883 128.619 22.454C127.295 23.9197 125.591 24.8556 123.507 25.2618L123.693 23.646C124.364 24.9174 125.052 26.2331 125.759 27.5928C126.465 28.9349 127.18 30.3035 127.904 31.6986C128.646 33.076 129.388 34.4446 130.129 35.8044C130.889 37.1465 131.639 38.4532 132.381 39.7247L128.937 40.3604ZM113.653 23.3546L112.461 22.9838H117.733C119.604 22.9838 121.247 22.8513 122.659 22.5864C124.09 22.3039 125.202 21.677 125.997 20.7057C126.809 19.7168 127.216 18.1716 127.216 16.0702C127.216 14.0923 126.933 12.5825 126.368 11.5406C125.82 10.481 124.99 9.75698 123.878 9.36848C122.765 8.97998 121.379 8.78572 119.719 8.78572H112.461L113.653 7.59373V23.3546Z" fill="#F0FDFB"/>
<path d="M148.487 37.0165C147.884 38.9257 145.966 40.0982 143.992 39.7641L153.035 10.7203C153.911 7.9072 156.515 5.99084 159.461 5.99084L169.501 39.7641L166.296 40.3469L163.223 30.2811L164.759 31.5261H149.051L150.614 30.2811L148.487 37.0165ZM150.508 30.0162L149.661 28.8507H163.859L163.011 30.0162L156.521 7.7656H157.21L150.508 30.0162Z" fill="#F0FDFB"/>
<path d="M190.701 40.5327C189.041 40.5327 187.389 40.3561 185.747 40.0029C184.122 39.6321 182.577 39.1199 181.112 38.4665L181.986 35.6852C182.922 36.1267 184.087 36.577 185.482 37.0362C186.895 37.4953 188.67 37.7249 190.806 37.7249C193.12 37.7249 194.903 37.1333 196.157 35.9501C197.429 34.7493 198.064 33.054 198.064 30.8642C198.064 29.2219 197.588 27.924 196.634 26.9704C195.698 25.9991 194.003 25.1073 191.548 24.295L188.29 23.209C185.782 22.379 183.955 21.2753 182.807 19.8979C181.677 18.5204 181.112 16.7545 181.112 14.6001C181.112 11.7746 182.048 9.60252 183.919 8.08383C185.809 6.56513 188.422 5.80579 191.76 5.80579C193.473 5.80579 195.045 5.94706 196.475 6.22961C197.906 6.4945 199.292 6.90066 200.634 7.4481L199.998 10.1764C198.709 9.68199 197.349 9.30232 195.919 9.03743C194.488 8.75488 193.164 8.61361 191.946 8.61361C189.456 8.61361 187.593 9.08158 186.356 10.0175C185.12 10.9358 184.502 12.4368 184.502 14.5206C184.502 15.9687 184.855 17.0989 185.562 17.9112C186.286 18.7235 187.557 19.4564 189.376 20.1098L192.396 21.1958C194.162 21.8315 195.725 22.5114 197.084 23.2355C198.444 23.9418 199.512 24.8866 200.29 26.0698C201.067 27.2529 201.455 28.8688 201.455 30.9172C201.455 33.9193 200.501 36.2768 198.594 37.9897C196.705 39.685 194.073 40.5327 190.701 40.5327Z" fill="#F0FDFB"/>
<path d="M91.7257 59.9072V61.5325H83.7443V59.9072H91.7257ZM84.1481 46.46V61.5325H82.1501V46.46H84.1481ZM90.6698 52.9403V54.5656H83.7443V52.9403H90.6698ZM91.6222 46.46V48.0956H83.7443V46.46H91.6222ZM101.221 59.6174V53.8513C101.221 53.4096 101.132 53.0266 100.952 52.7022C100.78 52.371 100.517 52.1156 100.165 51.9362C99.8134 51.7567 99.3786 51.667 98.861 51.667C98.3779 51.667 97.9535 51.7498 97.5877 51.9155C97.2288 52.0811 96.9459 52.2985 96.7388 52.5676C96.5387 52.8368 96.4386 53.1267 96.4386 53.4372H94.5235C94.5235 53.0369 94.627 52.6401 94.8341 52.2467C95.0411 51.8534 95.3379 51.4979 95.7243 51.1805C96.1177 50.8561 96.587 50.6008 97.1322 50.4144C97.6843 50.2212 98.2985 50.1246 98.9749 50.1246C99.7892 50.1246 100.507 50.2626 101.128 50.5387C101.756 50.8147 102.246 51.2322 102.598 51.7912C102.957 52.3433 103.136 53.0369 103.136 53.872V59.0894C103.136 59.4621 103.167 59.8589 103.23 60.2799C103.299 60.7009 103.399 61.0632 103.53 61.3668V61.5325H101.532C101.435 61.3116 101.359 61.0183 101.304 60.6526C101.249 60.2799 101.221 59.9348 101.221 59.6174ZM101.553 54.7416L101.573 56.0873H99.6374C99.0922 56.0873 98.6057 56.1322 98.1778 56.2219C97.7499 56.3047 97.391 56.4324 97.1012 56.6049C96.8113 56.7775 96.5905 56.9948 96.4386 57.2571C96.2868 57.5124 96.2109 57.8127 96.2109 58.1577C96.2109 58.5097 96.2903 58.8306 96.449 59.1205C96.6077 59.4103 96.8458 59.6415 97.1633 59.814C97.4876 59.9797 97.8845 60.0625 98.3538 60.0625C98.9404 60.0625 99.458 59.9383 99.9066 59.6898C100.355 59.4414 100.711 59.1377 100.973 58.7788C101.242 58.42 101.387 58.0715 101.408 57.7333L102.225 58.6546C102.177 58.9445 102.046 59.2654 101.832 59.6174C101.618 59.9693 101.332 60.3075 100.973 60.6318C100.621 60.9493 100.2 61.215 99.7099 61.429C99.2268 61.636 98.6816 61.7395 98.0743 61.7395C97.3151 61.7395 96.6491 61.5911 96.0763 61.2944C95.5104 60.9976 95.0687 60.6008 94.7513 60.1039C94.4407 59.6001 94.2854 59.0376 94.2854 58.4165C94.2854 57.8161 94.4027 57.2882 94.6374 56.8327C94.872 56.3703 95.2102 55.9873 95.6519 55.6836C96.0936 55.373 96.625 55.1384 97.2461 54.9797C97.8672 54.8209 98.5608 54.7416 99.3268 54.7416H101.553ZM108.771 52.0915V61.5325H106.856V50.3316H108.719L108.771 52.0915ZM112.27 50.2695L112.259 52.05C112.101 52.0155 111.949 51.9948 111.804 51.9879C111.666 51.9741 111.507 51.9672 111.328 51.9672C110.886 51.9672 110.496 52.0362 110.158 52.1743C109.82 52.3123 109.533 52.5055 109.299 52.754C109.064 53.0024 108.878 53.2992 108.74 53.6443C108.608 53.9824 108.522 54.3551 108.481 54.7623L107.942 55.0728C107.942 54.3965 108.008 53.7616 108.139 53.1681C108.277 52.5745 108.488 52.05 108.771 51.5946C109.054 51.1322 109.412 50.7733 109.847 50.5179C110.289 50.2557 110.813 50.1246 111.421 50.1246C111.559 50.1246 111.717 50.1418 111.897 50.1763C112.076 50.2039 112.201 50.235 112.27 50.2695ZM116.827 45.6318V61.5325H114.902V45.6318H116.827ZM123.755 60.373L126.871 50.3316H128.921L124.428 63.2613C124.325 63.5373 124.187 63.8341 124.014 64.1515C123.849 64.4759 123.635 64.783 123.372 65.0729C123.11 65.3627 122.793 65.5974 122.42 65.7768C122.054 65.9631 121.616 66.0563 121.105 66.0563C120.954 66.0563 120.76 66.0356 120.526 65.9942C120.291 65.9528 120.125 65.9183 120.029 65.8907L120.018 64.3379C120.074 64.3448 120.16 64.3517 120.277 64.3586C120.401 64.3724 120.488 64.3793 120.536 64.3793C120.971 64.3793 121.34 64.3206 121.644 64.2033C121.947 64.0929 122.203 63.9031 122.41 63.6339C122.624 63.3717 122.807 63.0094 122.958 62.547L123.755 60.373ZM121.468 50.3316L124.377 59.0273L124.873 61.0459L123.497 61.7499L119.377 50.3316H121.468ZM137.612 46.46H142.602C143.733 46.46 144.689 46.6325 145.469 46.9776C146.256 47.3226 146.853 47.8333 147.26 48.5097C147.674 49.1791 147.881 50.0038 147.881 50.9838C147.881 51.6739 147.74 52.3054 147.457 52.8782C147.181 53.4441 146.78 53.9272 146.256 54.3275C145.738 54.7209 145.117 55.0142 144.393 55.2074L143.834 55.4248H139.144L139.123 53.7995H142.664C143.381 53.7995 143.978 53.6753 144.455 53.4269C144.931 53.1715 145.29 52.8299 145.531 52.402C145.773 51.9741 145.894 51.5014 145.894 50.9838C145.894 50.4041 145.78 49.8968 145.552 49.462C145.324 49.0273 144.965 48.6925 144.475 48.4579C143.992 48.2164 143.368 48.0956 142.602 48.0956H139.61V61.5325H137.612V46.46ZM146.422 61.5325L142.757 54.7002L144.838 54.6898L148.554 61.4082V61.5325H146.422ZM153.174 50.3316V61.5325H151.248V50.3316H153.174ZM151.103 47.3606C151.103 47.05 151.197 46.7878 151.383 46.5738C151.576 46.3599 151.859 46.2529 152.232 46.2529C152.598 46.2529 152.877 46.3599 153.07 46.5738C153.27 46.7878 153.37 47.05 153.37 47.3606C153.37 47.6573 153.27 47.9127 153.07 48.1266C152.877 48.3337 152.598 48.4372 152.232 48.4372C151.859 48.4372 151.576 48.3337 151.383 48.1266C151.197 47.9127 151.103 47.6573 151.103 47.3606ZM163.477 58.5614C163.477 58.2854 163.415 58.03 163.29 57.7954C163.173 57.5539 162.928 57.3365 162.555 57.1432C162.19 56.9431 161.638 56.7706 160.899 56.6256C160.278 56.4945 159.716 56.3392 159.212 56.1598C158.715 55.9804 158.29 55.763 157.938 55.5076C157.593 55.2523 157.328 54.9521 157.141 54.607C156.955 54.2619 156.862 53.8582 156.862 53.3958C156.862 52.9541 156.958 52.5366 157.152 52.1432C157.352 51.7498 157.631 51.4013 157.99 51.0977C158.356 50.794 158.794 50.5559 159.305 50.3834C159.816 50.2108 160.385 50.1246 161.013 50.1246C161.91 50.1246 162.676 50.2833 163.311 50.6008C163.946 50.9182 164.433 51.3427 164.771 51.8741C165.109 52.3986 165.278 52.9817 165.278 53.6235H163.363C163.363 53.313 163.27 53.0128 163.083 52.7229C162.904 52.4262 162.638 52.1812 162.286 51.9879C161.941 51.7947 161.517 51.6981 161.013 51.6981C160.482 51.6981 160.05 51.7809 159.719 51.9465C159.395 52.1053 159.157 52.3088 159.005 52.5573C158.86 52.8057 158.787 53.068 158.787 53.344C158.787 53.5511 158.822 53.7374 158.891 53.9031C158.967 54.0618 159.098 54.2102 159.284 54.3482C159.471 54.4793 159.733 54.6035 160.071 54.7209C160.409 54.8382 160.84 54.9555 161.365 55.0728C162.283 55.2799 163.039 55.5283 163.632 55.8182C164.226 56.108 164.667 56.4634 164.957 56.8844C165.247 57.3054 165.392 57.8161 165.392 58.4165C165.392 58.9065 165.288 59.3551 165.081 59.7623C164.881 60.1695 164.588 60.5214 164.201 60.8182C163.822 61.108 163.366 61.3358 162.835 61.5014C162.31 61.6601 161.72 61.7395 161.065 61.7395C160.078 61.7395 159.243 61.5635 158.56 61.2116C157.876 60.8596 157.359 60.4041 157.007 59.8451C156.655 59.2861 156.479 58.696 156.479 58.0749H158.404C158.432 58.5994 158.584 59.0169 158.86 59.3275C159.136 59.6312 159.474 59.8485 159.874 59.9797C160.275 60.1039 160.671 60.166 161.065 60.166C161.589 60.166 162.027 60.097 162.379 59.959C162.738 59.8209 163.011 59.6312 163.197 59.3896C163.384 59.1481 163.477 58.872 163.477 58.5614ZM170.54 45.6318V61.5325H168.614V45.6318H170.54ZM177.382 50.3316L172.496 55.5594L169.763 58.3958L169.608 56.3565L171.564 54.0169L175.043 50.3316H177.382ZM175.633 61.5325L171.637 56.1908L172.631 54.4828L177.89 61.5325H175.633ZM191.901 47.7954L186.912 61.5325H184.872L190.618 46.46H191.932L191.901 47.7954ZM196.083 61.5325L191.083 47.7954L191.052 46.46H192.367L198.133 61.5325H196.083ZM195.825 55.9527V57.5884H187.357V55.9527H195.825ZM207.09 58.5614C207.09 58.2854 207.028 58.03 206.904 57.7954C206.787 57.5539 206.542 57.3365 206.169 57.1432C205.803 56.9431 205.251 56.7706 204.513 56.6256C203.892 56.4945 203.329 56.3392 202.825 56.1598C202.329 55.9804 201.904 55.763 201.552 55.5076C201.207 55.2523 200.941 54.9521 200.755 54.607C200.569 54.2619 200.475 53.8582 200.475 53.3958C200.475 52.9541 200.572 52.5366 200.765 52.1432C200.965 51.7498 201.245 51.4013 201.604 51.0977C201.97 50.794 202.408 50.5559 202.919 50.3834C203.429 50.2108 203.999 50.1246 204.627 50.1246C205.524 50.1246 206.29 50.2833 206.925 50.6008C207.56 50.9182 208.046 51.3427 208.384 51.8741C208.723 52.3986 208.892 52.9817 208.892 53.6235H206.977C206.977 53.313 206.883 53.0128 206.697 52.7229C206.518 52.4262 206.252 52.1812 205.9 51.9879C205.555 51.7947 205.13 51.6981 204.627 51.6981C204.095 51.6981 203.664 51.7809 203.333 51.9465C203.008 52.1053 202.77 52.3088 202.618 52.5573C202.473 52.8057 202.401 53.068 202.401 53.344C202.401 53.5511 202.435 53.7374 202.504 53.9031C202.58 54.0618 202.712 54.2102 202.898 54.3482C203.084 54.4793 203.346 54.6035 203.685 54.7209C204.023 54.8382 204.454 54.9555 204.979 55.0728C205.896 55.2799 206.652 55.5283 207.246 55.8182C207.839 56.108 208.281 56.4634 208.571 56.8844C208.861 57.3054 209.006 57.8161 209.006 58.4165C209.006 58.9065 208.902 59.3551 208.695 59.7623C208.495 60.1695 208.202 60.5214 207.815 60.8182C207.435 61.108 206.98 61.3358 206.449 61.5014C205.924 61.6601 205.334 61.7395 204.678 61.7395C203.692 61.7395 202.856 61.5635 202.173 61.2116C201.49 60.8596 200.972 60.4041 200.62 59.8451C200.268 59.2861 200.092 58.696 200.092 58.0749H202.018C202.046 58.5994 202.197 59.0169 202.473 59.3275C202.749 59.6312 203.088 59.8485 203.488 59.9797C203.888 60.1039 204.285 60.166 204.678 60.166C205.203 60.166 205.641 60.097 205.993 59.959C206.352 59.8209 206.625 59.6312 206.811 59.3896C206.997 59.1481 207.09 58.872 207.09 58.5614ZM218.75 58.5614C218.75 58.2854 218.687 58.03 218.563 57.7954C218.446 57.5539 218.201 57.3365 217.828 57.1432C217.462 56.9431 216.91 56.7706 216.172 56.6256C215.551 56.4945 214.988 56.3392 214.485 56.1598C213.988 55.9804 213.563 55.763 213.211 55.5076C212.866 55.2523 212.6 54.9521 212.414 54.607C212.228 54.2619 212.135 53.8582 212.135 53.3958C212.135 52.9541 212.231 52.5366 212.424 52.1432C212.625 51.7498 212.904 51.4013 213.263 51.0977C213.629 50.794 214.067 50.5559 214.578 50.3834C215.088 50.2108 215.658 50.1246 216.286 50.1246C217.183 50.1246 217.949 50.2833 218.584 50.6008C219.219 50.9182 219.705 51.3427 220.044 51.8741C220.382 52.3986 220.551 52.9817 220.551 53.6235H218.636C218.636 53.313 218.542 53.0128 218.356 52.7229C218.177 52.4262 217.911 52.1812 217.559 51.9879C217.214 51.7947 216.79 51.6981 216.286 51.6981C215.754 51.6981 215.323 51.7809 214.992 51.9465C214.667 52.1053 214.429 52.3088 214.277 52.5573C214.133 52.8057 214.06 53.068 214.06 53.344C214.06 53.5511 214.095 53.7374 214.164 53.9031C214.24 54.0618 214.371 54.2102 214.557 54.3482C214.743 54.4793 215.006 54.6035 215.344 54.7209C215.682 54.8382 216.113 54.9555 216.638 55.0728C217.556 55.2799 218.311 55.5283 218.905 55.8182C219.498 56.108 219.94 56.4634 220.23 56.8844C220.52 57.3054 220.665 57.8161 220.665 58.4165C220.665 58.9065 220.561 59.3551 220.354 59.7623C220.154 60.1695 219.861 60.5214 219.474 60.8182C219.095 61.108 218.639 61.3358 218.108 61.5014C217.583 61.6601 216.993 61.7395 216.338 61.7395C215.351 61.7395 214.516 61.5635 213.832 61.2116C213.149 60.8596 212.632 60.4041 212.28 59.8451C211.928 59.2861 211.752 58.696 211.752 58.0749H213.677C213.705 58.5994 213.856 59.0169 214.133 59.3275C214.409 59.6312 214.747 59.8485 215.147 59.9797C215.547 60.1039 215.944 60.166 216.338 60.166C216.862 60.166 217.3 60.097 217.652 59.959C218.011 59.8209 218.284 59.6312 218.47 59.3896C218.656 59.1481 218.75 58.872 218.75 58.5614ZM225.968 50.3316V61.5325H224.042V50.3316H225.968ZM223.897 47.3606C223.897 47.05 223.99 46.7878 224.177 46.5738C224.37 46.3599 224.653 46.2529 225.026 46.2529C225.391 46.2529 225.671 46.3599 225.864 46.5738C226.064 46.7878 226.164 47.05 226.164 47.3606C226.164 47.6573 226.064 47.9127 225.864 48.1266C225.671 48.3337 225.391 48.4372 225.026 48.4372C224.653 48.4372 224.37 48.3337 224.177 48.1266C223.99 47.9127 223.897 47.6573 223.897 47.3606ZM236.271 58.5614C236.271 58.2854 236.209 58.03 236.084 57.7954C235.967 57.5539 235.722 57.3365 235.349 57.1432C234.984 56.9431 234.431 56.7706 233.693 56.6256C233.072 56.4945 232.509 56.3392 232.006 56.1598C231.509 55.9804 231.084 55.763 230.732 55.5076C230.387 55.2523 230.122 54.9521 229.935 54.607C229.749 54.2619 229.656 53.8582 229.656 53.3958C229.656 52.9541 229.752 52.5366 229.946 52.1432C230.146 51.7498 230.425 51.4013 230.784 51.0977C231.15 50.794 231.588 50.5559 232.099 50.3834C232.609 50.2108 233.179 50.1246 233.807 50.1246C234.704 50.1246 235.47 50.2833 236.105 50.6008C236.74 50.9182 237.226 51.3427 237.565 51.8741C237.903 52.3986 238.072 52.9817 238.072 53.6235H236.157C236.157 53.313 236.064 53.0128 235.877 52.7229C235.698 52.4262 235.432 52.1812 235.08 51.9879C234.735 51.7947 234.311 51.6981 233.807 51.6981C233.275 51.6981 232.844 51.7809 232.513 51.9465C232.188 52.1053 231.95 52.3088 231.799 52.5573C231.654 52.8057 231.581 53.068 231.581 53.344C231.581 53.5511 231.616 53.7374 231.685 53.9031C231.761 54.0618 231.892 54.2102 232.078 54.3482C232.264 54.4793 232.527 54.6035 232.865 54.7209C233.203 54.8382 233.634 54.9555 234.159 55.0728C235.077 55.2799 235.832 55.5283 236.426 55.8182C237.019 56.108 237.461 56.4634 237.751 56.8844C238.041 57.3054 238.186 57.8161 238.186 58.4165C238.186 58.9065 238.082 59.3551 237.875 59.7623C237.675 60.1695 237.382 60.5214 236.995 60.8182C236.616 61.108 236.16 61.3358 235.629 61.5014C235.104 61.6601 234.514 61.7395 233.859 61.7395C232.872 61.7395 232.037 61.5635 231.353 61.2116C230.67 60.8596 230.153 60.4041 229.801 59.8451C229.449 59.2861 229.273 58.696 229.273 58.0749H231.198C231.226 58.5994 231.378 59.0169 231.654 59.3275C231.93 59.6312 232.268 59.8485 232.668 59.9797C233.068 60.1039 233.465 60.166 233.859 60.166C234.383 60.166 234.821 60.097 235.173 59.959C235.532 59.8209 235.805 59.6312 235.991 59.3896C236.177 59.1481 236.271 58.872 236.271 58.5614ZM246.097 50.3316V51.8016H240.042V50.3316H246.097ZM242.091 47.609H244.006V58.7581C244.006 59.1377 244.065 59.4241 244.182 59.6174C244.3 59.8106 244.451 59.9383 244.638 60.0004C244.824 60.0625 245.024 60.0935 245.238 60.0935C245.397 60.0935 245.563 60.0797 245.735 60.0521C245.915 60.0176 246.049 59.99 246.139 59.9693L246.149 61.5325C245.997 61.5808 245.797 61.6256 245.549 61.667C245.307 61.7154 245.014 61.7395 244.669 61.7395C244.2 61.7395 243.768 61.6463 243.375 61.46C242.981 61.2737 242.667 60.9631 242.433 60.5283C242.205 60.0866 242.091 59.4931 242.091 58.7478V47.609ZM255.655 59.6174V53.8513C255.655 53.4096 255.565 53.0266 255.386 52.7022C255.213 52.371 254.951 52.1156 254.599 51.9362C254.247 51.7567 253.812 51.667 253.295 51.667C252.812 51.667 252.387 51.7498 252.022 51.9155C251.663 52.0811 251.38 52.2985 251.173 52.5676C250.973 52.8368 250.872 53.1267 250.872 53.4372H248.957C248.957 53.0369 249.061 52.6401 249.268 52.2467C249.475 51.8534 249.772 51.4979 250.158 51.1805C250.552 50.8561 251.021 50.6008 251.566 50.4144C252.118 50.2212 252.732 50.1246 253.409 50.1246C254.223 50.1246 254.941 50.2626 255.562 50.5387C256.19 50.8147 256.68 51.2322 257.032 51.7912C257.391 52.3433 257.57 53.0369 257.57 53.872V59.0894C257.57 59.4621 257.601 59.8589 257.663 60.2799C257.732 60.7009 257.832 61.0632 257.964 61.3668V61.5325H255.966C255.869 61.3116 255.793 61.0183 255.738 60.6526C255.683 60.2799 255.655 59.9348 255.655 59.6174ZM255.986 54.7416L256.007 56.0873H254.071C253.526 56.0873 253.039 56.1322 252.612 56.2219C252.184 56.3047 251.825 56.4324 251.535 56.6049C251.245 56.7775 251.024 56.9948 250.872 57.2571C250.721 57.5124 250.645 57.8127 250.645 58.1577C250.645 58.5097 250.724 58.8306 250.883 59.1205C251.042 59.4103 251.28 59.6415 251.597 59.814C251.921 59.9797 252.318 60.0625 252.788 60.0625C253.374 60.0625 253.892 59.9383 254.34 59.6898C254.789 59.4414 255.144 59.1377 255.407 58.7788C255.676 58.42 255.821 58.0715 255.841 57.7333L256.659 58.6546C256.611 58.9445 256.48 59.2654 256.266 59.6174C256.052 59.9693 255.766 60.3075 255.407 60.6318C255.055 60.9493 254.634 61.215 254.144 61.429C253.661 61.636 253.115 61.7395 252.508 61.7395C251.749 61.7395 251.083 61.5911 250.51 61.2944C249.944 60.9976 249.503 60.6008 249.185 60.1039C248.875 59.6001 248.719 59.0376 248.719 58.4165C248.719 57.8161 248.837 57.2882 249.071 56.8327C249.306 56.3703 249.644 55.9873 250.086 55.6836C250.527 55.373 251.059 55.1384 251.68 54.9797C252.301 54.8209 252.995 54.7416 253.761 54.7416H255.986ZM263.204 52.7229V61.5325H261.289V50.3316H263.101L263.204 52.7229ZM262.749 55.5076L261.952 55.4766C261.959 54.7105 262.073 54.0031 262.293 53.3544C262.514 52.6988 262.825 52.1294 263.225 51.6463C263.625 51.1632 264.102 50.7906 264.654 50.5283C265.213 50.2591 265.83 50.1246 266.507 50.1246C267.059 50.1246 267.556 50.2005 267.997 50.3523C268.439 50.4972 268.815 50.7319 269.126 51.0563C269.443 51.3806 269.685 51.8016 269.85 52.3192C270.016 52.8299 270.099 53.4545 270.099 54.1929V61.5325H268.173V54.1722C268.173 53.5856 268.087 53.1163 267.915 52.7643C267.742 52.4055 267.49 52.1467 267.159 51.9879C266.828 51.8223 266.42 51.7395 265.937 51.7395C265.461 51.7395 265.026 51.8396 264.633 52.0397C264.247 52.2398 263.912 52.5159 263.629 52.8679C263.353 53.2198 263.135 53.6235 262.977 54.079C262.825 54.5276 262.749 55.0038 262.749 55.5076ZM278.197 60.166C278.652 60.166 279.073 60.0728 279.46 59.8865C279.846 59.7002 280.164 59.4448 280.412 59.1205C280.661 58.7892 280.802 58.4131 280.837 57.9921H282.659C282.624 58.6546 282.4 59.2723 281.986 59.8451C281.579 60.411 281.044 60.8699 280.381 61.2219C279.719 61.567 278.991 61.7395 278.197 61.7395C277.355 61.7395 276.62 61.5911 275.992 61.2944C275.371 60.9976 274.853 60.5904 274.439 60.0728C274.032 59.5552 273.725 58.9617 273.518 58.2923C273.318 57.616 273.218 56.9017 273.218 56.1494V55.7146C273.218 54.9624 273.318 54.2516 273.518 53.5821C273.725 52.9058 274.032 52.3088 274.439 51.7912C274.853 51.2736 275.371 50.8665 275.992 50.5697C276.62 50.273 277.355 50.1246 278.197 50.1246C279.073 50.1246 279.839 50.304 280.495 50.6629C281.151 51.0148 281.665 51.4979 282.037 52.1122C282.417 52.7195 282.624 53.4096 282.659 54.1826H280.837C280.802 53.7202 280.671 53.3026 280.443 52.93C280.222 52.5573 279.919 52.2605 279.532 52.0397C279.153 51.8119 278.708 51.6981 278.197 51.6981C277.61 51.6981 277.117 51.8154 276.717 52.05C276.323 52.2778 276.009 52.5883 275.775 52.9817C275.547 53.3682 275.381 53.7995 275.278 54.2757C275.181 54.745 275.133 55.2247 275.133 55.7146V56.1494C275.133 56.6394 275.181 57.1225 275.278 57.5987C275.374 58.0749 275.536 58.5062 275.764 58.8927C275.999 59.2792 276.313 59.5897 276.706 59.8244C277.106 60.0521 277.603 60.166 278.197 60.166ZM290.167 61.7395C289.387 61.7395 288.679 61.6084 288.044 61.3461C287.416 61.077 286.875 60.7009 286.419 60.2178C285.971 59.7347 285.625 59.1619 285.384 58.4993C285.142 57.8368 285.022 57.1122 285.022 56.3254V55.8906C285.022 54.9797 285.156 54.1688 285.425 53.4579C285.694 52.7402 286.06 52.1329 286.523 51.636C286.985 51.1391 287.51 50.7629 288.096 50.5076C288.683 50.2522 289.29 50.1246 289.918 50.1246C290.719 50.1246 291.409 50.2626 291.989 50.5387C292.575 50.8147 293.055 51.2012 293.427 51.6981C293.8 52.1881 294.076 52.7678 294.256 53.4372C294.435 54.0997 294.525 54.8244 294.525 55.6111V56.4703H286.16V54.9072H292.61V54.7623C292.582 54.2654 292.479 53.7823 292.299 53.313C292.127 52.8437 291.85 52.4572 291.471 52.1536C291.091 51.8499 290.574 51.6981 289.918 51.6981C289.483 51.6981 289.083 51.7912 288.717 51.9776C288.352 52.157 288.038 52.4262 287.775 52.785C287.513 53.1439 287.309 53.5821 287.164 54.0997C287.02 54.6173 286.947 55.2143 286.947 55.8906V56.3254C286.947 56.8568 287.02 57.3572 287.164 57.8265C287.316 58.2888 287.534 58.696 287.817 59.048C288.107 59.4 288.455 59.676 288.862 59.8762C289.276 60.0763 289.746 60.1764 290.27 60.1764C290.946 60.1764 291.519 60.0383 291.989 59.7623C292.458 59.4862 292.868 59.117 293.22 58.6546L294.38 59.5759C294.138 59.9417 293.831 60.2902 293.458 60.6215C293.086 60.9528 292.627 61.2219 292.082 61.429C291.543 61.636 290.905 61.7395 290.167 61.7395ZM311.756 57.7229C311.756 57.371 311.701 57.0604 311.59 56.7913C311.487 56.5152 311.301 56.2668 311.031 56.0459C310.769 55.8251 310.403 55.6146 309.934 55.4144C309.472 55.2143 308.885 55.0107 308.174 54.8037C307.429 54.5828 306.756 54.3378 306.156 54.0687C305.555 53.7926 305.041 53.4786 304.613 53.1267C304.185 52.7747 303.857 52.371 303.63 51.9155C303.402 51.46 303.288 50.9389 303.288 50.3523C303.288 49.7657 303.409 49.2239 303.65 48.7271C303.892 48.2302 304.237 47.7988 304.686 47.4331C305.141 47.0604 305.683 46.7705 306.311 46.5635C306.939 46.3564 307.639 46.2529 308.412 46.2529C309.544 46.2529 310.503 46.4703 311.29 46.9051C312.084 47.333 312.688 47.8954 313.102 48.5925C313.516 49.2826 313.723 50.0211 313.723 50.8078H311.735C311.735 50.2419 311.615 49.7415 311.373 49.3068C311.131 48.8651 310.766 48.52 310.276 48.2716C309.786 48.0162 309.165 47.8885 308.412 47.8885C307.701 47.8885 307.115 47.9955 306.652 48.2095C306.19 48.4234 305.845 48.7133 305.617 49.079C305.396 49.4448 305.286 49.8623 305.286 50.3316C305.286 50.6491 305.352 50.9389 305.483 51.2012C305.621 51.4565 305.831 51.6946 306.114 51.9155C306.404 52.1363 306.77 52.3399 307.211 52.5262C307.66 52.7126 308.195 52.892 308.816 53.0645C309.672 53.3061 310.41 53.5752 311.031 53.872C311.652 54.1688 312.163 54.5035 312.563 54.8761C312.971 55.2419 313.271 55.6594 313.464 56.1287C313.664 56.5911 313.764 57.1156 313.764 57.7022C313.764 58.3165 313.64 58.872 313.392 59.3689C313.143 59.8658 312.788 60.2902 312.325 60.6422C311.863 60.9942 311.307 61.2668 310.659 61.46C310.017 61.6463 309.299 61.7395 308.505 61.7395C307.808 61.7395 307.122 61.6429 306.445 61.4497C305.776 61.2564 305.165 60.9666 304.613 60.5801C304.068 60.1936 303.63 59.7174 303.298 59.1515C302.974 58.5787 302.812 57.9162 302.812 57.1639H304.799C304.799 57.6815 304.9 58.1267 305.1 58.4993C305.3 58.8651 305.572 59.1688 305.917 59.4103C306.269 59.6519 306.666 59.8313 307.108 59.9486C307.557 60.059 308.022 60.1142 308.505 60.1142C309.203 60.1142 309.793 60.0176 310.276 59.8244C310.759 59.6312 311.125 59.3551 311.373 58.9962C311.628 58.6374 311.756 58.2129 311.756 57.7229ZM316.22 56.0563V55.8182C316.22 55.0107 316.338 54.2619 316.572 53.5718C316.807 52.8748 317.145 52.2709 317.587 51.7602C318.029 51.2426 318.563 50.8423 319.191 50.5594C319.82 50.2695 320.523 50.1246 321.303 50.1246C322.09 50.1246 322.797 50.2695 323.425 50.5594C324.06 50.8423 324.599 51.2426 325.04 51.7602C325.489 52.2709 325.831 52.8748 326.065 53.5718C326.3 54.2619 326.417 55.0107 326.417 55.8182V56.0563C326.417 56.8637 326.3 57.6125 326.065 58.3026C325.831 58.9928 325.489 59.5966 325.04 60.1142C324.599 60.6249 324.064 61.0252 323.436 61.3151C322.815 61.598 322.111 61.7395 321.324 61.7395C320.537 61.7395 319.83 61.598 319.202 61.3151C318.574 61.0252 318.036 60.6249 317.587 60.1142C317.145 59.5966 316.807 58.9928 316.572 58.3026C316.338 57.6125 316.22 56.8637 316.22 56.0563ZM318.136 55.8182V56.0563C318.136 56.6153 318.201 57.1432 318.332 57.6401C318.463 58.1301 318.66 58.5649 318.922 58.9445C319.191 59.324 319.526 59.6243 319.926 59.8451C320.327 60.059 320.793 60.166 321.324 60.166C321.848 60.166 322.307 60.059 322.701 59.8451C323.101 59.6243 323.432 59.324 323.695 58.9445C323.957 58.5649 324.154 58.1301 324.285 57.6401C324.423 57.1432 324.492 56.6153 324.492 56.0563V55.8182C324.492 55.2661 324.423 54.745 324.285 54.255C324.154 53.7581 323.953 53.3199 323.684 52.9403C323.422 52.5538 323.091 52.2502 322.69 52.0293C322.297 51.8085 321.835 51.6981 321.303 51.6981C320.779 51.6981 320.316 51.8085 319.916 52.0293C319.523 52.2502 319.191 52.5538 318.922 52.9403C318.66 53.3199 318.463 53.7581 318.332 54.255C318.201 54.745 318.136 55.2661 318.136 55.8182ZM331.606 45.6318V61.5325H329.681V45.6318H331.606ZM342.241 58.9445V50.3316H344.166V61.5325H342.334L342.241 58.9445ZM342.603 56.5842L343.4 56.5635C343.4 57.3089 343.321 57.999 343.162 58.6339C343.01 59.2619 342.762 59.8071 342.417 60.2695C342.071 60.7319 341.619 61.0942 341.06 61.3565C340.501 61.6118 339.822 61.7395 339.021 61.7395C338.476 61.7395 337.976 61.6601 337.52 61.5014C337.071 61.3427 336.685 61.0977 336.361 60.7664C336.036 60.4352 335.784 60.0038 335.605 59.4724C335.432 58.941 335.346 58.3026 335.346 57.5573V50.3316H337.261V57.578C337.261 58.0818 337.316 58.4993 337.427 58.8306C337.544 59.155 337.699 59.4138 337.893 59.607C338.093 59.7933 338.314 59.9245 338.555 60.0004C338.804 60.0763 339.059 60.1142 339.321 60.1142C340.136 60.1142 340.781 59.959 341.257 59.6484C341.733 59.3309 342.075 58.9065 342.282 58.3751C342.496 57.8368 342.603 57.2398 342.603 56.5842ZM352.481 50.3316V51.8016H346.426V50.3316H352.481ZM348.475 47.609H350.39V58.7581C350.39 59.1377 350.449 59.4241 350.566 59.6174C350.684 59.8106 350.835 59.9383 351.022 60.0004C351.208 60.0625 351.408 60.0935 351.622 60.0935C351.781 60.0935 351.947 60.0797 352.119 60.0521C352.299 60.0176 352.433 59.99 352.523 59.9693L352.533 61.5325C352.381 61.5808 352.181 61.6256 351.933 61.667C351.691 61.7154 351.398 61.7395 351.053 61.7395C350.584 61.7395 350.152 61.6463 349.759 61.46C349.365 61.2737 349.051 60.9631 348.817 60.5283C348.589 60.0866 348.475 59.4931 348.475 58.7478V47.609ZM357.515 50.3316V61.5325H355.59V50.3316H357.515ZM355.445 47.3606C355.445 47.05 355.538 46.7878 355.724 46.5738C355.918 46.3599 356.201 46.2529 356.573 46.2529C356.939 46.2529 357.219 46.3599 357.412 46.5738C357.612 46.7878 357.712 47.05 357.712 47.3606C357.712 47.6573 357.612 47.9127 357.412 48.1266C357.219 48.3337 356.939 48.4372 356.573 48.4372C356.201 48.4372 355.918 48.3337 355.724 48.1266C355.538 47.9127 355.445 47.6573 355.445 47.3606ZM360.789 56.0563V55.8182C360.789 55.0107 360.907 54.2619 361.141 53.5718C361.376 52.8748 361.714 52.2709 362.156 51.7602C362.597 51.2426 363.132 50.8423 363.76 50.5594C364.388 50.2695 365.092 50.1246 365.872 50.1246C366.659 50.1246 367.366 50.2695 367.994 50.5594C368.629 50.8423 369.167 51.2426 369.609 51.7602C370.058 52.2709 370.399 52.8748 370.634 53.5718C370.869 54.2619 370.986 55.0107 370.986 55.8182V56.0563C370.986 56.8637 370.869 57.6125 370.634 58.3026C370.399 58.9928 370.058 59.5966 369.609 60.1142C369.167 60.6249 368.633 61.0252 368.005 61.3151C367.383 61.598 366.68 61.7395 365.893 61.7395C365.106 61.7395 364.399 61.598 363.771 61.3151C363.143 61.0252 362.604 60.6249 362.156 60.1142C361.714 59.5966 361.376 58.9928 361.141 58.3026C360.907 57.6125 360.789 56.8637 360.789 56.0563ZM362.704 55.8182V56.0563C362.704 56.6153 362.77 57.1432 362.901 57.6401C363.032 58.1301 363.229 58.5649 363.491 58.9445C363.76 59.324 364.095 59.6243 364.495 59.8451C364.896 60.059 365.361 60.166 365.893 60.166C366.417 60.166 366.876 60.059 367.27 59.8451C367.67 59.6243 368.001 59.324 368.263 58.9445C368.526 58.5649 368.722 58.1301 368.853 57.6401C368.991 57.1432 369.06 56.6153 369.06 56.0563V55.8182C369.06 55.2661 368.991 54.745 368.853 54.255C368.722 53.7581 368.522 53.3199 368.253 52.9403C367.991 52.5538 367.66 52.2502 367.259 52.0293C366.866 51.8085 366.403 51.6981 365.872 51.6981C365.348 51.6981 364.885 51.8085 364.485 52.0293C364.092 52.2502 363.76 52.5538 363.491 52.9403C363.229 53.3199 363.032 53.7581 362.901 54.255C362.77 54.745 362.704 55.2661 362.704 55.8182ZM376.009 52.7229V61.5325H374.094V50.3316H375.906L376.009 52.7229ZM375.554 55.5076L374.757 55.4766C374.764 54.7105 374.878 54.0031 375.098 53.3544C375.319 52.6988 375.63 52.1294 376.03 51.6463C376.43 51.1632 376.907 50.7906 377.459 50.5283C378.018 50.2591 378.635 50.1246 379.312 50.1246C379.864 50.1246 380.361 50.2005 380.802 50.3523C381.244 50.4972 381.62 50.7319 381.931 51.0563C382.248 51.3806 382.49 51.8016 382.655 52.3192C382.821 52.8299 382.904 53.4545 382.904 54.1929V61.5325H380.978V54.1722C380.978 53.5856 380.892 53.1163 380.72 52.7643C380.547 52.4055 380.295 52.1467 379.964 51.9879C379.633 51.8223 379.225 51.7395 378.742 51.7395C378.266 51.7395 377.831 51.8396 377.438 52.0397C377.052 52.2398 376.717 52.5159 376.434 52.8679C376.158 53.2198 375.94 53.6235 375.782 54.079C375.63 54.5276 375.554 55.0038 375.554 55.5076Z" fill="white"/>
</svg>
