<svg width="23" height="21" viewBox="0 0 23 21" fill="none" xmlns="http://www.w3.org/2000/svg">
<path fill-rule="evenodd" clip-rule="evenodd" d="M16.0736 4.8C16.0736 7.45097 13.9246 9.6 11.2736 9.6C8.62267 9.6 6.47363 7.45097 6.47363 4.8C6.47363 2.14903 8.62267 0 11.2736 0C13.9246 0 16.0736 2.14903 16.0736 4.8ZM14.4736 4.8C14.4736 6.56731 13.0409 8 11.2736 8C9.50632 8 8.07363 6.56731 8.07363 4.8C8.07363 3.03269 9.50632 1.6 11.2736 1.6C13.0409 1.6 14.4736 3.03269 14.4736 4.8Z" fill="white"/>
<path d="M11.2736 12C6.09413 12 1.68105 15.0627 0 19.3536C0.409516 19.7603 0.840911 20.1449 1.29226 20.5056C2.54406 16.5662 6.47101 13.6 11.2736 13.6C16.0763 13.6 20.0032 16.5662 21.255 20.5057C21.7064 20.1449 22.1378 19.7603 22.5473 19.3536C20.8662 15.0627 16.4531 12 11.2736 12Z" fill="white"/>
</svg>
