<svg width="39" height="34" viewBox="0 0 39 34" fill="none" xmlns="http://www.w3.org/2000/svg">
<path d="M0 33.25L19.25 0L38.5 33.25H0ZM6.0375 29.75H32.4625L19.25 7L6.0375 29.75ZM20.4969 27.4969C20.8323 27.1615 21 26.7458 21 26.25C21 25.7542 20.8323 25.3385 20.4969 25.0031C20.1615 24.6677 19.7458 24.5 19.25 24.5C18.7542 24.5 18.3385 24.6677 18.0031 25.0031C17.6677 25.3385 17.5 25.7542 17.5 26.25C17.5 26.7458 17.6677 27.1615 18.0031 27.4969C18.3385 27.8323 18.7542 28 19.25 28C19.7458 28 20.1615 27.8323 20.4969 27.4969ZM17.5 22.75H21V14H17.5V22.75Z" fill="#FF0000"/>
</svg>
