<svg width="24" height="17" viewBox="0 0 24 17" fill="none" xmlns="http://www.w3.org/2000/svg">
<path d="M19.3594 6.04688C18.6562 2.625 15.6562 0 12 0C9.09375 0 6.60938 1.64062 5.34375 4.07812C2.34375 4.35938 0 6.9375 0 10.0312C0 13.3125 2.67188 16.0312 6 16.0312H18.9844C21.75 16.0312 24 13.7812 24 11.0156C24 8.39062 21.9375 6.23438 19.3594 6.04688ZM10.6875 12.3281C10.3125 12.7031 9.70312 12.7031 9.28125 12.3281L7.21875 10.2188C6.79688 9.84375 6.79688 9.1875 7.21875 8.8125C7.59375 8.4375 8.20312 8.4375 8.625 8.8125L9.98438 10.2188L14.4844 5.71875C14.8594 5.34375 15.5156 5.34375 15.8906 5.71875C16.2656 6.09375 16.2656 6.75 15.8906 7.125L10.6875 12.3281Z" fill="#2563EB"/>
</svg>
