<svg width="107" height="92" viewBox="0 0 107 92" fill="none" xmlns="http://www.w3.org/2000/svg">
<path d="M32.875 16C38.0492 16 42.25 20.2008 42.25 25.375C42.25 30.5492 38.0492 34.75 32.875 34.75C27.7008 34.75 23.5 30.5492 23.5 25.375C23.5 20.2008 27.7008 16 32.875 16ZM76 16C81.1742 16 85.375 20.2008 85.375 25.375C85.375 30.5492 81.1742 34.75 76 34.75C70.8258 34.75 66.625 30.5492 66.625 25.375C66.625 20.2008 70.8258 16 76 16ZM16 51.0039C16 44.1016 21.6016 38.5 28.5039 38.5H33.5078C35.3711 38.5 37.1406 38.9102 38.7344 39.6367C38.582 40.4805 38.5117 41.3594 38.5117 42.25C38.5117 46.7266 40.4805 50.7461 43.5859 53.5C43.5625 53.5 43.5391 53.5 43.5039 53.5H18.4961C17.125 53.5 16 52.375 16 51.0039ZM63.4961 53.5C63.4727 53.5 63.4492 53.5 63.4141 53.5C66.5312 50.7461 68.4883 46.7266 68.4883 42.25C68.4883 41.3594 68.4062 40.4922 68.2656 39.6367C69.8594 38.8984 71.6289 38.5 73.4922 38.5H78.4961C85.3984 38.5 91 44.1016 91 51.0039C91 52.3867 89.875 53.5 88.5039 53.5H63.4961ZM42.25 42.25C42.25 36.041 47.291 31 53.5 31C59.709 31 64.75 36.041 64.75 42.25C64.75 48.459 59.709 53.5 53.5 53.5C47.291 53.5 42.25 48.459 42.25 42.25ZM31 72.8711C31 64.2461 37.9961 57.25 46.6211 57.25H60.3789C69.0039 57.25 76 64.2461 76 72.8711C76 74.5938 74.6055 76 72.8711 76H34.1289C32.4062 76 31 74.6055 31 72.8711Z" fill="#BADEDE"/>
</svg>
