<svg width="34" height="34" viewBox="0 0 34 34" fill="none" xmlns="http://www.w3.org/2000/svg">
<mask id="mask0_89_693" style="mask-type:alpha" maskUnits="userSpaceOnUse" x="0" y="0" width="34" height="34">
<rect width="34" height="34" fill="#D9D9D9"/>
</mask>
<g mask="url(#mask0_89_693)">
<path d="M3.86004 29.75C3.60032 29.75 3.3642 29.6851 3.1517 29.5552C2.9392 29.4253 2.77393 29.2542 2.65587 29.0417C2.53782 28.8292 2.47288 28.599 2.46108 28.351C2.44927 28.1031 2.5142 27.8611 2.65587 27.625L15.76 4.95833C15.9017 4.72222 16.0847 4.54514 16.309 4.42708C16.5333 4.30903 16.7635 4.25 16.9996 4.25C17.2357 4.25 17.4659 4.30903 17.6902 4.42708C17.9146 4.54514 18.0975 4.72222 18.2392 4.95833L31.3434 27.625C31.485 27.8611 31.55 28.1031 31.5382 28.351C31.5264 28.599 31.4614 28.8292 31.3434 29.0417C31.2253 29.2542 31.06 29.4253 30.8475 29.5552C30.635 29.6851 30.3989 29.75 30.1392 29.75H3.86004ZM6.30379 26.9167H27.6955L16.9996 8.5L6.30379 26.9167ZM18.009 25.0927C18.2805 24.8212 18.4163 24.4847 18.4163 24.0833C18.4163 23.6819 18.2805 23.3455 18.009 23.074C17.7375 22.8024 17.401 22.6667 16.9996 22.6667C16.5982 22.6667 16.2618 22.8024 15.9902 23.074C15.7187 23.3455 15.583 23.6819 15.583 24.0833C15.583 24.4847 15.7187 24.8212 15.9902 25.0927C16.2618 25.3642 16.5982 25.5 16.9996 25.5C17.401 25.5 17.7375 25.3642 18.009 25.0927ZM18.009 20.8427C18.2805 20.5712 18.4163 20.2347 18.4163 19.8333V15.5833C18.4163 15.1819 18.2805 14.8455 18.009 14.574C17.7375 14.3024 17.401 14.1667 16.9996 14.1667C16.5982 14.1667 16.2618 14.3024 15.9902 14.574C15.7187 14.8455 15.583 15.1819 15.583 15.5833V19.8333C15.583 20.2347 15.7187 20.5712 15.9902 20.8427C16.2618 21.1142 16.5982 21.25 16.9996 21.25C17.401 21.25 17.7375 21.1142 18.009 20.8427Z" fill="#DF1B1B"/>
</g>
</svg>
